{
  "Descriptions": [
    {
      "Type": "tap",
      "Time": 0,
      "Name": "right",
      "Names": [],
      "midi": 58,
      "velocity": 0.9448818897637795,
      "noteOffVelocity": 0,
      "ticks": 0,
      "durationTicks": 2880
    },
    {
      "Type": "tap",
      "Time": 1.7999999999999998,
      "Name": "left",
      "Names": [],
      "midi": 66,
      "velocity": 0.952755905511811,
      "noteOffVelocity": 0,
      "ticks": 2880,
      "durationTicks": 2880
    },
    {
      "Type": "tap",
      "Time": 3.5999999999999996,
      "Name": "up",
      "Names": [],
      "midi": 60,
      "velocity": 0.937007874015748,
      "noteOffVelocity": 0,
      "ticks": 5760,
      "durationTicks": 2880
    },
    {
      "Type": "tap",
      "Time": 5.3999999999999995,
      "Name": "right",
      "Names": [],
      "midi": 70,
      "velocity": 0.9606299212598425,
      "noteOffVelocity": 0,
      "ticks": 8640,
      "durationTicks": 2880
    },
    {
      "Type": "tap",
      "Time": 7.199999999999999,
      "Name": "up",
      "Names": [],
      "midi": 70,
      "velocity": 1,
      "noteOffVelocity": 0,
      "ticks": 11520,
      "durationTicks": 2880
    },
    {
      "Type": "tap",
      "Time": 9,
      "Name": "right",
      "Names": [],
      "midi": 78,
      "velocity": 1,
      "noteOffVelocity": 0,
      "ticks": 14400,
      "durationTicks": 2880
    },
    {
      "Type": "tap",
      "Time": 10.799999999999999,
      "Name": "up",
      "Names": [],
      "midi": 72,
      "velocity": 1,
      "noteOffVelocity": 0,
      "ticks": 17280,
      "durationTicks": 2880
    },
    {
      "Type": "tap",
      "Time": 12.6,
      "Name": "down",
      "Names": [],
      "midi": 82,
      "velocity": 1,
      "noteOffVelocity": 0,
      "ticks": 20160,
      "durationTicks": 2880
    },
    {
      "Type": "tap",
      "Time": 14.399999999999999,
      "Name": "down",
      "Names": [],
      "midi": 82,
      "velocity": 1,
      "noteOffVelocity": 0,
      "ticks": 23040,
      "durationTicks": 480
    },
    {
      "Type": "tap",
      "Time": 14.7,
      "Name": "right",
      "Names": [],
      "midi": 76,
      "velocity": 0.952755905511811,
      "noteOffVelocity": 0,
      "ticks": 23520,
      "durationTicks": 480
    },
    {
      "Type": "tap",
      "Time": 15,
      "Name": "down",
      "Names": [],
      "midi": 74,
      "velocity": 0.937007874015748,
      "noteOffVelocity": 0,
      "ticks": 24000,
      "durationTicks": 480
    },
    {
      "Type": "tap",
      "Time": 15.299999999999999,
      "Name": "left",
      "Names": [],
      "midi": 70,
      "velocity": 0.889763779527559,
      "noteOffVelocity": 0,
      "ticks": 24480,
      "durationTicks": 480
    },
    {
      "Type": "tap",
      "Time": 15.6,
      "Name": "left",
      "Names": [],
      "midi": 64,
      "velocity": 0.8503937007874016,
      "noteOffVelocity": 0,
      "ticks": 24960,
      "durationTicks": 480
    },
    {
      "Type": "tap",
      "Time": 15.899999999999999,
      "Name": "down",
      "Names": [],
      "midi": 62,
      "velocity": 0.8582677165354331,
      "noteOffVelocity": 0,
      "ticks": 25440,
      "durationTicks": 480
    },
    {
      "Type": "tap",
      "Time": 16.2,
      "Name": "right",
      "Names": [],
      "midi": 82,
      "velocity": 1,
      "noteOffVelocity": 0,
      "ticks": 25920,
      "durationTicks": 480
    },
    {
      "Type": "tap",
      "Time": 16.5,
      "Name": "right",
      "Names": [],
      "midi": 76,
      "velocity": 1,
      "noteOffVelocity": 0,
      "ticks": 26400,
      "durationTicks": 480
    },
    {
      "Type": "tap",
      "Time": 16.8,
      "Name": "down",
      "Names": [],
      "midi": 74,
      "velocity": 1,
      "noteOffVelocity": 0,
      "ticks": 26880,
      "durationTicks": 480
    },
    {
      "Type": "tap",
      "Time": 17.099999999999998,
      "Name": "up",
      "Names": [],
      "midi": 70,
      "velocity": 0.9133858267716536,
      "noteOffVelocity": 0,
      "ticks": 27360,
      "durationTicks": 480
    },
    {
      "Type": "tap",
      "Time": 17.4,
      "Name": "left",
      "Names": [],
      "midi": 64,
      "velocity": 0.8503937007874016,
      "noteOffVelocity": 0,
      "ticks": 27840,
      "durationTicks": 480
    },
    {
      "Type": "tap",
      "Time": 17.7,
      "Name": "down",
      "Names": [],
      "midi": 62,
      "velocity": 0.8582677165354331,
      "noteOffVelocity": 0,
      "ticks": 28320,
      "durationTicks": 480
    },
    {
      "Type": "tap",
      "Time": 18,
      "Name": "right",
      "Names": [],
      "midi": 70,
      "velocity": 1,
      "noteOffVelocity": 0,
      "ticks": 28800,
      "durationTicks": 1440
    },
    {
      "Type": "tap",
      "Time": 18.9,
      "Name": "up",
      "Names": [],
      "midi": 66,
      "velocity": 0.984251968503937,
      "noteOffVelocity": 0,
      "ticks": 30240,
      "durationTicks": 1440
    },
    {
      "Type": "tap",
      "Time": 19.8,
      "Name": "up",
      "Names": [],
      "midi": 73,
      "velocity": 1,
      "noteOffVelocity": 0,
      "ticks": 31680,
      "durationTicks": 480
    },
    {
      "Type": "tap",
      "Time": 20.1,
      "Name": "down",
      "Names": [],
      "midi": 66,
      "velocity": 0.9448818897637795,
      "noteOffVelocity": 0,
      "ticks": 32160,
      "durationTicks": 480
    },
    {
      "Type": "tap",
      "Time": 20.400000000000002,
      "Name": "up",
      "Names": [],
      "midi": 65,
      "velocity": 0.9448818897637795,
      "noteOffVelocity": 0,
      "ticks": 32640,
      "durationTicks": 480
    },
    {
      "Type": "tap",
      "Time": 20.7,
      "Name": "up",
      "Names": [],
      "midi": 75,
      "velocity": 1,
      "noteOffVelocity": 0,
      "ticks": 33120,
      "durationTicks": 1440
    },
    {
      "Type": "tap",
      "Time": 21.599999999999998,
      "Name": "up",
      "Names": [],
      "midi": 73,
      "velocity": 1,
      "noteOffVelocity": 0,
      "ticks": 34560,
      "durationTicks": 1440
    },
    {
      "Type": "tap",
      "Time": 22.5,
      "Name": "down",
      "Names": [],
      "midi": 73,
      "velocity": 1,
      "noteOffVelocity": 0,
      "ticks": 36000,
      "durationTicks": 480
    },
    {
      "Type": "tap",
      "Time": 22.8,
      "Name": "up",
      "Names": [],
      "midi": 66,
      "velocity": 0.9212598425196851,
      "noteOffVelocity": 0,
      "ticks": 36480,
      "durationTicks": 480
    },
    {
      "Type": "tap",
      "Time": 23.1,
      "Name": "left",
      "Names": [],
      "midi": 65,
      "velocity": 0.9212598425196851,
      "noteOffVelocity": 0,
      "ticks": 36960,
      "durationTicks": 480
    },
    {
      "Type": "tap",
      "Time": 23.4,
      "Name": "right",
      "Names": [],
      "midi": 70,
      "velocity": 1,
      "noteOffVelocity": 0,
      "ticks": 37440,
      "durationTicks": 480
    },
    {
      "Type": "tap",
      "Time": 23.7,
      "Name": "left",
      "Names": [],
      "midi": 66,
      "velocity": 0.9448818897637795,
      "noteOffVelocity": 0,
      "ticks": 37920,
      "durationTicks": 480
    },
    {
      "Type": "tap",
      "Time": 24,
      "Name": "down",
      "Names": [],
      "midi": 65,
      "velocity": 0.937007874015748,
      "noteOffVelocity": 0,
      "ticks": 38400,
      "durationTicks": 480
    },
    {
      "Type": "tap",
      "Time": 24.299999999999997,
      "Name": "left",
      "Names": [],
      "midi": 66,
      "velocity": 0.984251968503937,
      "noteOffVelocity": 0,
      "ticks": 38880,
      "durationTicks": 480
    },
    {
      "Type": "tap",
      "Time": 24.599999999999998,
      "Name": "right",
      "Names": [],
      "midi": 65,
      "velocity": 0.9606299212598425,
      "noteOffVelocity": 0,
      "ticks": 39360,
      "durationTicks": 480
    },
    {
      "Type": "tap",
      "Time": 24.9,
      "Name": "down",
      "Names": [],
      "midi": 60,
      "velocity": 0.8740157480314961,
      "noteOffVelocity": 0,
      "ticks": 39840,
      "durationTicks": 480
    },
    {
      "Type": "tap",
      "Time": 25.2,
      "Name": "down",
      "Names": [],
      "midi": 73,
      "velocity": 1,
      "noteOffVelocity": 0,
      "ticks": 40320,
      "durationTicks": 480
    },
    {
      "Type": "tap",
      "Time": 25.5,
      "Name": "down",
      "Names": [],
      "midi": 66,
      "velocity": 0.984251968503937,
      "noteOffVelocity": 0,
      "ticks": 40800,
      "durationTicks": 480
    },
    {
      "Type": "tap",
      "Time": 25.8,
      "Name": "down",
      "Names": [],
      "midi": 65,
      "velocity": 0.9606299212598425,
      "noteOffVelocity": 0,
      "ticks": 41280,
      "durationTicks": 480
    },
    {
      "Type": "tap",
      "Time": 26.099999999999998,
      "Name": "down",
      "Names": [],
      "midi": 75,
      "velocity": 1,
      "noteOffVelocity": 0,
      "ticks": 41760,
      "durationTicks": 480
    },
    {
      "Type": "tap",
      "Time": 26.4,
      "Name": "up",
      "Names": [],
      "midi": 72,
      "velocity": 1,
      "noteOffVelocity": 0,
      "ticks": 42240,
      "durationTicks": 480
    },
    {
      "Type": "tap",
      "Time": 26.7,
      "Name": "right",
      "Names": [],
      "midi": 77,
      "velocity": 1,
      "noteOffVelocity": 0,
      "ticks": 42720,
      "durationTicks": 480
    },
    {
      "Type": "tap",
      "Time": 26.999999999999996,
      "Name": "down",
      "Names": [],
      "midi": 73,
      "velocity": 1,
      "noteOffVelocity": 0,
      "ticks": 43200,
      "durationTicks": 480
    },
    {
      "Type": "tap",
      "Time": 27.299999999999997,
      "Name": "left",
      "Names": [],
      "midi": 72,
      "velocity": 0.984251968503937,
      "noteOffVelocity": 0,
      "ticks": 43680,
      "durationTicks": 480
    },
    {
      "Type": "tap",
      "Time": 27.599999999999998,
      "Name": "right",
      "Names": [],
      "midi": 69,
      "velocity": 0.905511811023622,
      "noteOffVelocity": 0,
      "ticks": 44160,
      "durationTicks": 480
    },
    {
      "Type": "tap",
      "Time": 27.9,
      "Name": "left",
      "Names": [],
      "midi": 73,
      "velocity": 1,
      "noteOffVelocity": 0,
      "ticks": 44640,
      "durationTicks": 480
    },
    {
      "Type": "tap",
      "Time": 28.2,
      "Name": "right",
      "Names": [],
      "midi": 66,
      "velocity": 0.8740157480314961,
      "noteOffVelocity": 0,
      "ticks": 45120,
      "durationTicks": 480
    },
    {
      "Type": "tap",
      "Time": 28.5,
      "Name": "right",
      "Names": [],
      "midi": 65,
      "velocity": 0.8818897637795275,
      "noteOffVelocity": 0,
      "ticks": 45600,
      "durationTicks": 480
    },
    {
      "Type": "tap",
      "Time": 28.799999999999997,
      "Name": "right",
      "Names": [],
      "midi": 70,
      "velocity": 1,
      "noteOffVelocity": 0,
      "ticks": 46080,
      "durationTicks": 240
    },
    {
      "Type": "tap",
      "Time": 28.949999999999996,
      "Name": "down",
      "Names": [],
      "midi": 65,
      "velocity": 0.889763779527559,
      "noteOffVelocity": 0,
      "ticks": 46320,
      "durationTicks": 240
    },
    {
      "Type": "tap",
      "Time": 29.099999999999998,
      "Name": "up",
      "Names": [],
      "midi": 66,
      "velocity": 0.937007874015748,
      "noteOffVelocity": 0,
      "ticks": 46560,
      "durationTicks": 480
    },
    {
      "Type": "tap",
      "Time": 29.4,
      "Name": "right",
      "Names": [],
      "midi": 65,
      "velocity": 0.9291338582677166,
      "noteOffVelocity": 0,
      "ticks": 47040,
      "durationTicks": 480
    },
    {
      "Type": "tap",
      "Time": 29.699999999999996,
      "Name": "down",
      "Names": [],
      "midi": 66,
      "velocity": 0.984251968503937,
      "noteOffVelocity": 0,
      "ticks": 47520,
      "durationTicks": 480
    },
    {
      "Type": "tap",
      "Time": 29.999999999999996,
      "Name": "right",
      "Names": [],
      "midi": 65,
      "velocity": 0.9606299212598425,
      "noteOffVelocity": 0,
      "ticks": 48000,
      "durationTicks": 240
    },
    {
      "Type": "tap",
      "Time": 30.15,
      "Name": "up",
      "Names": [],
      "midi": 61,
      "velocity": 0.8661417322834646,
      "noteOffVelocity": 0,
      "ticks": 48240,
      "durationTicks": 240
    },
    {
      "Type": "tap",
      "Time": 30.299999999999997,
      "Name": "down",
      "Names": [],
      "midi": 60,
      "velocity": 0.8661417322834646,
      "noteOffVelocity": 0,
      "ticks": 48480,
      "durationTicks": 480
    },
    {
      "Type": "tap",
      "Time": 30.599999999999998,
      "Name": "down",
      "Names": [],
      "midi": 73,
      "velocity": 1,
      "noteOffVelocity": 0,
      "ticks": 48960,
      "durationTicks": 240
    },
    {
      "Type": "tap",
      "Time": 30.749999999999996,
      "Name": "right",
      "Names": [],
      "midi": 61,
      "velocity": 0.8661417322834646,
      "noteOffVelocity": 0,
      "ticks": 49200,
      "durationTicks": 240
    },
    {
      "Type": "tap",
      "Time": 30.9,
      "Name": "up",
      "Names": [],
      "midi": 66,
      "velocity": 1,
      "noteOffVelocity": 0,
      "ticks": 49440,
      "durationTicks": 480
    },
    {
      "Type": "tap",
      "Time": 31.2,
      "Name": "down",
      "Names": [],
      "midi": 65,
      "velocity": 1,
      "noteOffVelocity": 0,
      "ticks": 49920,
      "durationTicks": 240
    },
    {
      "Type": "tap",
      "Time": 31.349999999999998,
      "Name": "up",
      "Names": [],
      "midi": 70,
      "velocity": 1,
      "noteOffVelocity": 0,
      "ticks": 50160,
      "durationTicks": 240
    },
    {
      "Type": "tap",
      "Time": 31.499999999999996,
      "Name": "left",
      "Names": [],
      "midi": 75,
      "velocity": 1,
      "noteOffVelocity": 0,
      "ticks": 50400,
      "durationTicks": 240
    },
    {
      "Type": "tap",
      "Time": 31.649999999999995,
      "Name": "left",
      "Names": [],
      "midi": 72,
      "velocity": 1,
      "noteOffVelocity": 0,
      "ticks": 50640,
      "durationTicks": 240
    },
    {
      "Type": "tap",
      "Time": 31.799999999999997,
      "Name": "left",
      "Names": [],
      "midi": 77,
      "velocity": 1,
      "noteOffVelocity": 0,
      "ticks": 50880,
      "durationTicks": 480
    },
    {
      "Type": "tap",
      "Time": 32.099999999999994,
      "Name": "down",
      "Names": [],
      "midi": 75,
      "velocity": 1,
      "noteOffVelocity": 0,
      "ticks": 51360,
      "durationTicks": 240
    },
    {
      "Type": "tap",
      "Time": 32.25,
      "Name": "down",
      "Names": [],
      "midi": 70,
      "velocity": 0.9448818897637795,
      "noteOffVelocity": 0,
      "ticks": 51600,
      "durationTicks": 240
    },
    {
      "Type": "tap",
      "Time": 32.4,
      "Name": "up",
      "Names": [],
      "midi": 73,
      "velocity": 1,
      "noteOffVelocity": 0,
      "ticks": 51840,
      "durationTicks": 240
    },
    {
      "Type": "tap",
      "Time": 32.55,
      "Name": "left",
      "Names": [],
      "midi": 70,
      "velocity": 0.9212598425196851,
      "noteOffVelocity": 0,
      "ticks": 52080,
      "durationTicks": 240
    },
    {
      "Type": "tap",
      "Time": 32.699999999999996,
      "Name": "left",
      "Names": [],
      "midi": 72,
      "velocity": 1,
      "noteOffVelocity": 0,
      "ticks": 52320,
      "durationTicks": 480
    },
    {
      "Type": "tap",
      "Time": 33,
      "Name": "right",
      "Names": [],
      "midi": 69,
      "velocity": 0.889763779527559,
      "noteOffVelocity": 0,
      "ticks": 52800,
      "durationTicks": 480
    },
    {
      "Type": "tap",
      "Time": 33.3,
      "Name": "down",
      "Names": [],
      "midi": 73,
      "velocity": 1,
      "noteOffVelocity": 0,
      "ticks": 53280,
      "durationTicks": 480
    },
    {
      "Type": "tap",
      "Time": 33.599999999999994,
      "Name": "left",
      "Names": [],
      "midi": 66,
      "velocity": 0.8503937007874016,
      "noteOffVelocity": 0,
      "ticks": 53760,
      "durationTicks": 480
    },
    {
      "Type": "tap",
      "Time": 33.9,
      "Name": "up",
      "Names": [],
      "midi": 65,
      "velocity": 0.8661417322834646,
      "noteOffVelocity": 0,
      "ticks": 54240,
      "durationTicks": 480
    },
    {
      "Type": "tap",
      "Time": 34.199999999999996,
      "Name": "right",
      "Names": [],
      "midi": 70,
      "velocity": 1,
      "noteOffVelocity": 0,
      "ticks": 54720,
      "durationTicks": 960
    },
    {
      "Type": "tap",
      "Time": 34.8,
      "Name": "left",
      "Names": [],
      "midi": 72,
      "velocity": 1,
      "noteOffVelocity": 0,
      "ticks": 55680,
      "durationTicks": 480
    },
    {
      "Type": "tap",
      "Time": 35.099999999999994,
      "Name": "left",
      "Names": [],
      "midi": 73,
      "velocity": 1,
      "noteOffVelocity": 0,
      "ticks": 56160,
      "durationTicks": 960
    },
    {
      "Type": "tap",
      "Time": 35.699999999999996,
      "Name": "down",
      "Names": [],
      "midi": 76,
      "velocity": 1,
      "noteOffVelocity": 0,
      "ticks": 57120,
      "durationTicks": 240
    },
    {
      "Type": "tap",
      "Time": 35.849999999999994,
      "Name": "left",
      "Names": [],
      "midi": 77,
      "velocity": 1,
      "noteOffVelocity": 0,
      "ticks": 57360,
      "durationTicks": 240
    },
    {
      "Type": "tap",
      "Time": 35.99999999999999,
      "Name": "right",
      "Names": [],
      "midi": 78,
      "velocity": 1,
      "noteOffVelocity": 0,
      "ticks": 57600,
      "durationTicks": 480
    },
    {
      "Type": "tap",
      "Time": 36.3,
      "Name": "right",
      "Names": [],
      "midi": 77,
      "velocity": 1,
      "noteOffVelocity": 0,
      "ticks": 58080,
      "durationTicks": 480
    },
    {
      "Type": "tap",
      "Time": 36.599999999999994,
      "Name": "down",
      "Names": [],
      "midi": 76,
      "velocity": 0.9921259842519685,
      "noteOffVelocity": 0,
      "ticks": 58560,
      "durationTicks": 480
    },
    {
      "Type": "tap",
      "Time": 36.9,
      "Name": "right",
      "Names": [],
      "midi": 73,
      "velocity": 0.905511811023622,
      "noteOffVelocity": 0,
      "ticks": 59040,
      "durationTicks": 960
    },
    {
      "Type": "tap",
      "Time": 37.49999999999999,
      "Name": "up",
      "Names": [],
      "midi": 76,
      "velocity": 1,
      "noteOffVelocity": 0,
      "ticks": 60000,
      "durationTicks": 240
    },
    {
      "Type": "tap",
      "Time": 37.65,
      "Name": "down",
      "Names": [],
      "midi": 77,
      "velocity": 1,
      "noteOffVelocity": 0,
      "ticks": 60240,
      "durationTicks": 240
    },
    {
      "Type": "tap",
      "Time": 37.8,
      "Name": "up",
      "Names": [],
      "midi": 78,
      "velocity": 1,
      "noteOffVelocity": 0,
      "ticks": 60480,
      "durationTicks": 960
    },
    {
      "Type": "tap",
      "Time": 38.4,
      "Name": "right",
      "Names": [],
      "midi": 77,
      "velocity": 1,
      "noteOffVelocity": 0,
      "ticks": 61440,
      "durationTicks": 240
    },
    {
      "Type": "tap",
      "Time": 38.55,
      "Name": "left",
      "Names": [],
      "midi": 76,
      "velocity": 0.984251968503937,
      "noteOffVelocity": 0,
      "ticks": 61680,
      "durationTicks": 240
    },
    {
      "Type": "tap",
      "Time": 38.699999999999996,
      "Name": "up",
      "Names": [],
      "midi": 73,
      "velocity": 0.8976377952755905,
      "noteOffVelocity": 0,
      "ticks": 61920,
      "durationTicks": 240
    },
    {
      "Type": "tap",
      "Time": 38.849999999999994,
      "Name": "down",
      "Names": [],
      "midi": 72,
      "velocity": 0.889763779527559,
      "noteOffVelocity": 0,
      "ticks": 62160,
      "durationTicks": 240
    },
    {
      "Type": "tap",
      "Time": 38.99999999999999,
      "Name": "up",
      "Names": [],
      "midi": 76,
      "velocity": 1,
      "noteOffVelocity": 0,
      "ticks": 62400,
      "durationTicks": 480
    },
    {
      "Type": "tap",
      "Time": 39.3,
      "Name": "right",
      "Names": [],
      "midi": 78,
      "velocity": 1,
      "noteOffVelocity": 0,
      "ticks": 62880,
      "durationTicks": 480
    },
    {
      "Type": "tap",
      "Time": 39.599999999999994,
      "Name": "left",
      "Names": [],
      "midi": 77,
      "velocity": 1,
      "noteOffVelocity": 0,
      "ticks": 63360,
      "durationTicks": 960
    },
    {
      "Type": "tap",
      "Time": 41.39999999999999,
      "Name": "up",
      "Names": [],
      "midi": 77,
      "velocity": 1,
      "noteOffVelocity": 0,
      "ticks": 66240,
      "durationTicks": 960
    },
    {
      "Type": "tap",
      "Time": 41.99999999999999,
      "Name": "right",
      "Names": [],
      "midi": 76,
      "velocity": 0.9921259842519685,
      "noteOffVelocity": 0,
      "ticks": 67200,
      "durationTicks": 480
    },
    {
      "Type": "tap",
      "Time": 42.3,
      "Name": "left",
      "Names": [],
      "midi": 72,
      "velocity": 0.9448818897637795,
      "noteOffVelocity": 0,
      "ticks": 67680,
      "durationTicks": 240
    },
    {
      "Type": "tap",
      "Time": 42.449999999999996,
      "Name": "right",
      "Names": [],
      "midi": 77,
      "velocity": 1,
      "noteOffVelocity": 0,
      "ticks": 67920,
      "durationTicks": 240
    },
    {
      "Type": "tap",
      "Time": 42.599999999999994,
      "Name": "up",
      "Names": [],
      "midi": 78,
      "velocity": 1,
      "noteOffVelocity": 0,
      "ticks": 68160,
      "durationTicks": 960
    },
    {
      "Type": "tap",
      "Time": 43.199999999999996,
      "Name": "left",
      "Names": [],
      "midi": 77,
      "velocity": 1,
      "noteOffVelocity": 0,
      "ticks": 69120,
      "durationTicks": 960
    },
    {
      "Type": "tap",
      "Time": 43.8,
      "Name": "left",
      "Names": [],
      "midi": 76,
      "velocity": 0.9921259842519685,
      "noteOffVelocity": 0,
      "ticks": 70080,
      "durationTicks": 480
    },
    {
      "Type": "tap",
      "Time": 44.099999999999994,
      "Name": "right",
      "Names": [],
      "midi": 72,
      "velocity": 0.9212598425196851,
      "noteOffVelocity": 0,
      "ticks": 70560,
      "durationTicks": 240
    },
    {
      "Type": "tap",
      "Time": 44.24999999999999,
      "Name": "down",
      "Names": [],
      "midi": 77,
      "velocity": 1,
      "noteOffVelocity": 0,
      "ticks": 70800,
      "durationTicks": 240
    },
    {
      "Type": "tap",
      "Time": 44.39999999999999,
      "Name": "right",
      "Names": [],
      "midi": 82,
      "velocity": 1,
      "noteOffVelocity": 0,
      "ticks": 71040,
      "durationTicks": 960
    },
    {
      "Type": "tap",
      "Time": 44.99999999999999,
      "Name": "right",
      "Names": [],
      "midi": 85,
      "velocity": 1,
      "noteOffVelocity": 0,
      "ticks": 72000,
      "durationTicks": 960
    },
    {
      "Type": "tap",
      "Time": 45.599999999999994,
      "Name": "up",
      "Names": [],
      "midi": 86,
      "velocity": 1,
      "noteOffVelocity": 0,
      "ticks": 72960,
      "durationTicks": 480
    },
    {
      "Type": "tap",
      "Time": 45.89999999999999,
      "Name": "left",
      "Names": [],
      "midi": 85,
      "velocity": 1,
      "noteOffVelocity": 0,
      "ticks": 73440,
      "durationTicks": 240
    },
    {
      "Type": "tap",
      "Time": 46.05,
      "Name": "up",
      "Names": [],
      "midi": 82,
      "velocity": 0.9606299212598425,
      "noteOffVelocity": 0,
      "ticks": 73680,
      "durationTicks": 240
    },
    {
      "Type": "tap",
      "Time": 46.199999999999996,
      "Name": "right",
      "Names": [],
      "midi": 81,
      "velocity": 0.9291338582677166,
      "noteOffVelocity": 0,
      "ticks": 73920,
      "durationTicks": 480
    },
    {
      "Type": "tap",
      "Time": 46.49999999999999,
      "Name": "down",
      "Names": [],
      "midi": 77,
      "velocity": 0.8661417322834646,
      "noteOffVelocity": 0,
      "ticks": 74400,
      "durationTicks": 480
    },
    {
      "Type": "tap",
      "Time": 46.8,
      "Name": "down",
      "Names": [],
      "midi": 82,
      "velocity": 1,
      "noteOffVelocity": 0,
      "ticks": 74880,
      "durationTicks": 1440
    },
    {
      "Type": "tap",
      "Time": 48.599999999999994,
      "Name": "right",
      "Names": [],
      "midi": 76,
      "velocity": 1,
      "noteOffVelocity": 0,
      "ticks": 77760,
      "durationTicks": 240
    },
    {
      "Type": "tap",
      "Time": 48.74999999999999,
      "Name": "left",
      "Names": [],
      "midi": 64,
      "velocity": 0.889763779527559,
      "noteOffVelocity": 0,
      "ticks": 78000,
      "durationTicks": 240
    },
    {
      "Type": "tap",
      "Time": 48.89999999999999,
      "Name": "right",
      "Names": [],
      "midi": 76,
      "velocity": 1,
      "noteOffVelocity": 0,
      "ticks": 78240,
      "durationTicks": 480
    },
    {
      "Type": "tap",
      "Time": 49.199999999999996,
      "Name": "up",
      "Names": [],
      "midi": 77,
      "velocity": 1,
      "noteOffVelocity": 0,
      "ticks": 78720,
      "durationTicks": 480
    },
    {
      "Type": "tap",
      "Time": 49.49999999999999,
      "Name": "down",
      "Names": [],
      "midi": 78,
      "velocity": 1,
      "noteOffVelocity": 0,
      "ticks": 79200,
      "durationTicks": 240
    },
    {
      "Type": "tap",
      "Time": 49.64999999999999,
      "Name": "down",
      "Names": [],
      "midi": 66,
      "velocity": 0.8503937007874016,
      "noteOffVelocity": 0,
      "ticks": 79440,
      "durationTicks": 240
    },
    {
      "Type": "tap",
      "Time": 49.8,
      "Name": "left",
      "Names": [],
      "midi": 82,
      "velocity": 1,
      "noteOffVelocity": 0,
      "ticks": 79680,
      "durationTicks": 480
    },
    {
      "Type": "tap",
      "Time": 50.099999999999994,
      "Name": "right",
      "Names": [],
      "midi": 81,
      "velocity": 1,
      "noteOffVelocity": 0,
      "ticks": 80160,
      "durationTicks": 240
    },
    {
      "Type": "tap",
      "Time": 50.25,
      "Name": "down",
      "Names": [],
      "midi": 82,
      "velocity": 1,
      "noteOffVelocity": 0,
      "ticks": 80400,
      "durationTicks": 240
    },
    {
      "Type": "tap",
      "Time": 50.39999999999999,
      "Name": "left",
      "Names": [],
      "midi": 83,
      "velocity": 1,
      "noteOffVelocity": 0,
      "ticks": 80640,
      "durationTicks": 240
    },
    {
      "Type": "tap",
      "Time": 50.55,
      "Name": "down",
      "Names": [],
      "midi": 71,
      "velocity": 0.8503937007874016,
      "noteOffVelocity": 0,
      "ticks": 80880,
      "durationTicks": 240
    },
    {
      "Type": "tap",
      "Time": 50.699999999999996,
      "Name": "up",
      "Names": [],
      "midi": 82,
      "velocity": 1,
      "noteOffVelocity": 0,
      "ticks": 81120,
      "durationTicks": 240
    },
    {
      "Type": "tap",
      "Time": 50.849999999999994,
      "Name": "left",
      "Names": [],
      "midi": 70,
      "velocity": 0.8503937007874016,
      "noteOffVelocity": 0,
      "ticks": 81360,
      "durationTicks": 240
    },
    {
      "Type": "tap",
      "Time": 51,
      "Name": "up",
      "Names": [],
      "midi": 81,
      "velocity": 1,
      "noteOffVelocity": 0,
      "ticks": 81600,
      "durationTicks": 240
    },
    {
      "Type": "tap",
      "Time": 51.14999999999999,
      "Name": "right",
      "Names": [],
      "midi": 69,
      "velocity": 0.8503937007874016,
      "noteOffVelocity": 0,
      "ticks": 81840,
      "durationTicks": 240
    },
    {
      "Type": "tap",
      "Time": 51.3,
      "Name": "up",
      "Names": [],
      "midi": 78,
      "velocity": 1,
      "noteOffVelocity": 0,
      "ticks": 82080,
      "durationTicks": 960
    },
    {
      "Type": "tap",
      "Time": 51.89999999999999,
      "Name": "left",
      "Names": [],
      "midi": 81,
      "velocity": 1,
      "noteOffVelocity": 0,
      "ticks": 83040,
      "durationTicks": 240
    },
    {
      "Type": "tap",
      "Time": 52.05,
      "Name": "down",
      "Names": [],
      "midi": 82,
      "velocity": 1,
      "noteOffVelocity": 0,
      "ticks": 83280,
      "durationTicks": 240
    },
    {
      "Type": "tap",
      "Time": 52.199999999999996,
      "Name": "right",
      "Names": [],
      "midi": 83,
      "velocity": 1,
      "noteOffVelocity": 0,
      "ticks": 83520,
      "durationTicks": 240
    },
    {
      "Type": "tap",
      "Time": 52.349999999999994,
      "Name": "left",
      "Names": [],
      "midi": 71,
      "velocity": 0.8503937007874016,
      "noteOffVelocity": 0,
      "ticks": 83760,
      "durationTicks": 240
    },
    {
      "Type": "tap",
      "Time": 52.5,
      "Name": "left",
      "Names": [],
      "midi": 82,
      "velocity": 1,
      "noteOffVelocity": 0,
      "ticks": 84000,
      "durationTicks": 240
    },
    {
      "Type": "tap",
      "Time": 52.64999999999999,
      "Name": "right",
      "Names": [],
      "midi": 70,
      "velocity": 0.8503937007874016,
      "noteOffVelocity": 0,
      "ticks": 84240,
      "durationTicks": 240
    },
    {
      "Type": "tap",
      "Time": 52.8,
      "Name": "up",
      "Names": [],
      "midi": 82,
      "velocity": 1,
      "noteOffVelocity": 0,
      "ticks": 84480,
      "durationTicks": 240
    },
    {
      "Type": "tap",
      "Time": 52.949999999999996,
      "Name": "left",
      "Names": [],
      "midi": 81,
      "velocity": 1,
      "noteOffVelocity": 0,
      "ticks": 84720,
      "durationTicks": 240
    },
    {
      "Type": "tap",
      "Time": 53.099999999999994,
      "Name": "up",
      "Names": [],
      "midi": 78,
      "velocity": 0.9763779527559056,
      "noteOffVelocity": 0,
      "ticks": 84960,
      "durationTicks": 240
    },
    {
      "Type": "tap",
      "Time": 53.25,
      "Name": "left",
      "Names": [],
      "midi": 77,
      "velocity": 0.9291338582677166,
      "noteOffVelocity": 0,
      "ticks": 85200,
      "durationTicks": 240
    },
    {
      "Type": "tap",
      "Time": 53.39999999999999,
      "Name": "up",
      "Names": [],
      "midi": 81,
      "velocity": 1,
      "noteOffVelocity": 0,
      "ticks": 85440,
      "durationTicks": 480
    },
    {
      "Type": "tap",
      "Time": 53.699999999999996,
      "Name": "up",
      "Names": [],
      "midi": 83,
      "velocity": 1,
      "noteOffVelocity": 0,
      "ticks": 85920,
      "durationTicks": 480
    },
    {
      "Type": "tap",
      "Time": 54,
      "Name": "up",
      "Names": [],
      "midi": 82,
      "velocity": 1,
      "noteOffVelocity": 0,
      "ticks": 86400,
      "durationTicks": 960
    },
    {
      "Type": "tap",
      "Time": 55.8,
      "Name": "up",
      "Names": [],
      "midi": 77,
      "velocity": 1,
      "noteOffVelocity": 0,
      "ticks": 89280,
      "durationTicks": 960
    },
    {
      "Type": "tap",
      "Time": 56.39999999999999,
      "Name": "up",
      "Names": [],
      "midi": 76,
      "velocity": 0.9921259842519685,
      "noteOffVelocity": 0,
      "ticks": 90240,
      "durationTicks": 480
    },
    {
      "Type": "tap",
      "Time": 56.699999999999996,
      "Name": "right",
      "Names": [],
      "midi": 72,
      "velocity": 0.9448818897637795,
      "noteOffVelocity": 0,
      "ticks": 90720,
      "durationTicks": 240
    },
    {
      "Type": "tap",
      "Time": 56.849999999999994,
      "Name": "right",
      "Names": [],
      "midi": 77,
      "velocity": 1,
      "noteOffVelocity": 0,
      "ticks": 90960,
      "durationTicks": 240
    },
    {
      "Type": "tap",
      "Time": 57,
      "Name": "left",
      "Names": [],
      "midi": 78,
      "velocity": 1,
      "noteOffVelocity": 0,
      "ticks": 91200,
      "durationTicks": 960
    },
    {
      "Type": "tap",
      "Time": 57.599999999999994,
      "Name": "up",
      "Names": [],
      "midi": 77,
      "velocity": 1,
      "noteOffVelocity": 0,
      "ticks": 92160,
      "durationTicks": 960
    },
    {
      "Type": "tap",
      "Time": 58.199999999999996,
      "Name": "up",
      "Names": [],
      "midi": 76,
      "velocity": 0.9921259842519685,
      "noteOffVelocity": 0,
      "ticks": 93120,
      "durationTicks": 480
    },
    {
      "Type": "tap",
      "Time": 58.5,
      "Name": "down",
      "Names": [],
      "midi": 72,
      "velocity": 0.9212598425196851,
      "noteOffVelocity": 0,
      "ticks": 93600,
      "durationTicks": 240
    },
    {
      "Type": "tap",
      "Time": 58.64999999999999,
      "Name": "right",
      "Names": [],
      "midi": 77,
      "velocity": 1,
      "noteOffVelocity": 0,
      "ticks": 93840,
      "durationTicks": 240
    },
    {
      "Type": "tap",
      "Time": 58.8,
      "Name": "right",
      "Names": [],
      "midi": 82,
      "velocity": 1,
      "noteOffVelocity": 0,
      "ticks": 94080,
      "durationTicks": 960
    },
    {
      "Type": "tap",
      "Time": 59.39999999999999,
      "Name": "right",
      "Names": [],
      "midi": 85,
      "velocity": 1,
      "noteOffVelocity": 0,
      "ticks": 95040,
      "durationTicks": 960
    },
    {
      "Type": "tap",
      "Time": 60,
      "Name": "down",
      "Names": [],
      "midi": 86,
      "velocity": 1,
      "noteOffVelocity": 0,
      "ticks": 96000,
      "durationTicks": 480
    },
    {
      "Type": "tap",
      "Time": 60.3,
      "Name": "left",
      "Names": [],
      "midi": 85,
      "velocity": 1,
      "noteOffVelocity": 0,
      "ticks": 96480,
      "durationTicks": 240
    },
    {
      "Type": "tap",
      "Time": 60.449999999999996,
      "Name": "left",
      "Names": [],
      "midi": 82,
      "velocity": 0.9606299212598425,
      "noteOffVelocity": 0,
      "ticks": 96720,
      "durationTicks": 240
    },
    {
      "Type": "tap",
      "Time": 60.599999999999994,
      "Name": "left",
      "Names": [],
      "midi": 81,
      "velocity": 0.9291338582677166,
      "noteOffVelocity": 0,
      "ticks": 96960,
      "durationTicks": 480
    },
    {
      "Type": "tap",
      "Time": 60.89999999999999,
      "Name": "up",
      "Names": [],
      "midi": 77,
      "velocity": 0.8661417322834646,
      "noteOffVelocity": 0,
      "ticks": 97440,
      "durationTicks": 480
    },
    {
      "Type": "tap",
      "Time": 61.199999999999996,
      "Name": "up",
      "Names": [],
      "midi": 82,
      "velocity": 1,
      "noteOffVelocity": 0,
      "ticks": 97920,
      "durationTicks": 1440
    },
    {
      "Type": "tap",
      "Time": 62.99999999999999,
      "Name": "right",
      "Names": [],
      "midi": 76,
      "velocity": 1,
      "noteOffVelocity": 0,
      "ticks": 100800,
      "durationTicks": 960
    },
    {
      "Type": "tap",
      "Time": 63.599999999999994,
      "Name": "left",
      "Names": [],
      "midi": 72,
      "velocity": 0.9763779527559056,
      "noteOffVelocity": 0,
      "ticks": 101760,
      "durationTicks": 960
    },
    {
      "Type": "tap",
      "Time": 64.19999999999999,
      "Name": "down",
      "Names": [],
      "midi": 79,
      "velocity": 1,
      "noteOffVelocity": 0,
      "ticks": 102720,
      "durationTicks": 480
    },
    {
      "Type": "tap",
      "Time": 64.49999999999999,
      "Name": "up",
      "Names": [],
      "midi": 78,
      "velocity": 1,
      "noteOffVelocity": 0,
      "ticks": 103200,
      "durationTicks": 480
    },
    {
      "Type": "tap",
      "Time": 64.79999999999998,
      "Name": "up",
      "Names": [],
      "midi": 74,
      "velocity": 0.9448818897637795,
      "noteOffVelocity": 0,
      "ticks": 103680,
      "durationTicks": 480
    },
    {
      "Type": "tap",
      "Time": 65.1,
      "Name": "left",
      "Names": [],
      "midi": 76,
      "velocity": 1,
      "noteOffVelocity": 0,
      "ticks": 104160,
      "durationTicks": 960
    },
    {
      "Type": "tap",
      "Time": 65.69999999999999,
      "Name": "up",
      "Names": [],
      "midi": 81,
      "velocity": 1,
      "noteOffVelocity": 0,
      "ticks": 105120,
      "durationTicks": 960
    },
    {
      "Type": "tap",
      "Time": 66.3,
      "Name": "down",
      "Names": [],
      "midi": 76,
      "velocity": 1,
      "noteOffVelocity": 0,
      "ticks": 106080,
      "durationTicks": 480
    },
    {
      "Type": "tap",
      "Time": 66.6,
      "Name": "left",
      "Names": [],
      "midi": 79,
      "velocity": 1,
      "noteOffVelocity": 0,
      "ticks": 106560,
      "durationTicks": 480
    },
    {
      "Type": "tap",
      "Time": 66.89999999999999,
      "Name": "up",
      "Names": [],
      "midi": 78,
      "velocity": 1,
      "noteOffVelocity": 0,
      "ticks": 107040,
      "durationTicks": 480
    },
    {
      "Type": "tap",
      "Time": 67.2,
      "Name": "down",
      "Names": [],
      "midi": 76,
      "velocity": 1,
      "noteOffVelocity": 0,
      "ticks": 107520,
      "durationTicks": 960
    },
    {
      "Type": "tap",
      "Time": 67.8,
      "Name": "left",
      "Names": [],
      "midi": 72,
      "velocity": 0.9133858267716536,
      "noteOffVelocity": 0,
      "ticks": 108480,
      "durationTicks": 960
    },
    {
      "Type": "tap",
      "Time": 68.4,
      "Name": "right",
      "Names": [],
      "midi": 76,
      "velocity": 1,
      "noteOffVelocity": 0,
      "ticks": 109440,
      "durationTicks": 480
    },
    {
      "Type": "tap",
      "Time": 68.7,
      "Name": "right",
      "Names": [],
      "midi": 78,
      "velocity": 1,
      "noteOffVelocity": 0,
      "ticks": 109920,
      "durationTicks": 480
    },
    {
      "Type": "tap",
      "Time": 69,
      "Name": "up",
      "Names": [],
      "midi": 79,
      "velocity": 1,
      "noteOffVelocity": 0,
      "ticks": 110400,
      "durationTicks": 480
    },
    {
      "Type": "tap",
      "Time": 69.30000000000001,
      "Name": "down",
      "Names": [],
      "midi": 81,
      "velocity": 1,
      "noteOffVelocity": 0,
      "ticks": 110880,
      "durationTicks": 960
    },
    {
      "Type": "tap",
      "Time": 69.9,
      "Name": "down",
      "Names": [],
      "midi": 79,
      "velocity": 1,
      "noteOffVelocity": 0,
      "ticks": 111840,
      "durationTicks": 960
    },
    {
      "Type": "tap",
      "Time": 70.50000000000001,
      "Name": "right",
      "Names": [],
      "midi": 76,
      "velocity": 1,
      "noteOffVelocity": 0,
      "ticks": 112800,
      "durationTicks": 480
    },
    {
      "Type": "tap",
      "Time": 70.80000000000001,
      "Name": "down",
      "Names": [],
      "midi": 79,
      "velocity": 1,
      "noteOffVelocity": 0,
      "ticks": 113280,
      "durationTicks": 480
    },
    {
      "Type": "tap",
      "Time": 71.10000000000001,
      "Name": "up",
      "Names": [],
      "midi": 78,
      "velocity": 0.9921259842519685,
      "noteOffVelocity": 0,
      "ticks": 113760,
      "durationTicks": 480
    },
    {
      "Type": "tap",
      "Time": 71.40000000000002,
      "Name": "up",
      "Names": [],
      "midi": 79,
      "velocity": 1,
      "noteOffVelocity": 0,
      "ticks": 114240,
      "durationTicks": 480
    },
    {
      "Type": "tap",
      "Time": 71.70000000000002,
      "Name": "down",
      "Names": [],
      "midi": 77,
      "velocity": 0.968503937007874,
      "noteOffVelocity": 0,
      "ticks": 114720,
      "durationTicks": 480
    },
    {
      "Type": "tap",
      "Time": 72.00000000000001,
      "Name": "up",
      "Names": [],
      "midi": 79,
      "velocity": 1,
      "noteOffVelocity": 0,
      "ticks": 115200,
      "durationTicks": 960
    },
    {
      "Type": "tap",
      "Time": 72.60000000000002,
      "Name": "down",
      "Names": [],
      "midi": 67,
      "velocity": 0.8976377952755905,
      "noteOffVelocity": 0,
      "ticks": 116160,
      "durationTicks": 480
    },
    {
      "Type": "tap",
      "Time": 72.90000000000002,
      "Name": "up",
      "Names": [],
      "midi": 69,
      "velocity": 0.8976377952755905,
      "noteOffVelocity": 0,
      "ticks": 116640,
      "durationTicks": 480
    },
    {
      "Type": "tap",
      "Time": 73.20000000000002,
      "Name": "down",
      "Names": [],
      "midi": 70,
      "velocity": 0.952755905511811,
      "noteOffVelocity": 0,
      "ticks": 117120,
      "durationTicks": 480
    },
    {
      "Type": "tap",
      "Time": 73.50000000000003,
      "Name": "down",
      "Names": [],
      "midi": 81,
      "velocity": 1,
      "noteOffVelocity": 0,
      "ticks": 117600,
      "durationTicks": 480
    },
    {
      "Type": "tap",
      "Time": 73.80000000000003,
      "Name": "right",
      "Names": [],
      "midi": 77,
      "velocity": 1,
      "noteOffVelocity": 0,
      "ticks": 118080,
      "durationTicks": 480
    },
    {
      "Type": "tap",
      "Time": 74.10000000000002,
      "Name": "right",
      "Names": [],
      "midi": 79,
      "velocity": 1,
      "noteOffVelocity": 0,
      "ticks": 118560,
      "durationTicks": 960
    },
    {
      "Type": "tap",
      "Time": 74.70000000000003,
      "Name": "up",
      "Names": [],
      "midi": 67,
      "velocity": 0.9212598425196851,
      "noteOffVelocity": 0,
      "ticks": 119520,
      "durationTicks": 480
    },
    {
      "Type": "tap",
      "Time": 75.00000000000003,
      "Name": "up",
      "Names": [],
      "midi": 70,
      "velocity": 0.937007874015748,
      "noteOffVelocity": 0,
      "ticks": 120000,
      "durationTicks": 480
    },
    {
      "Type": "tap",
      "Time": 75.30000000000003,
      "Name": "right",
      "Names": [],
      "midi": 69,
      "velocity": 0.937007874015748,
      "noteOffVelocity": 0,
      "ticks": 120480,
      "durationTicks": 480
    },
    {
      "Type": "tap",
      "Time": 75.60000000000004,
      "Name": "down",
      "Names": [],
      "midi": 79,
      "velocity": 1,
      "noteOffVelocity": 0,
      "ticks": 120960,
      "durationTicks": 480
    },
    {
      "Type": "tap",
      "Time": 75.90000000000003,
      "Name": "right",
      "Names": [],
      "midi": 81,
      "velocity": 1,
      "noteOffVelocity": 0,
      "ticks": 121440,
      "durationTicks": 480
    },
    {
      "Type": "tap",
      "Time": 76.20000000000003,
      "Name": "down",
      "Names": [],
      "midi": 79,
      "velocity": 1,
      "noteOffVelocity": 0,
      "ticks": 121920,
      "durationTicks": 480
    },
    {
      "Type": "tap",
      "Time": 76.50000000000004,
      "Name": "left",
      "Names": [],
      "midi": 77,
      "velocity": 1,
      "noteOffVelocity": 0,
      "ticks": 122400,
      "durationTicks": 480
    },
    {
      "Type": "tap",
      "Time": 76.80000000000004,
      "Name": "up",
      "Names": [],
      "midi": 67,
      "velocity": 0.8976377952755905,
      "noteOffVelocity": 0,
      "ticks": 122880,
      "durationTicks": 480
    },
    {
      "Type": "tap",
      "Time": 77.10000000000004,
      "Name": "left",
      "Names": [],
      "midi": 69,
      "velocity": 0.8818897637795275,
      "noteOffVelocity": 0,
      "ticks": 123360,
      "durationTicks": 480
    },
    {
      "Type": "tap",
      "Time": 77.40000000000003,
      "Name": "up",
      "Names": [],
      "midi": 70,
      "velocity": 0.9291338582677166,
      "noteOffVelocity": 0,
      "ticks": 123840,
      "durationTicks": 480
    },
    {
      "Type": "tap",
      "Time": 77.70000000000005,
      "Name": "left",
      "Names": [],
      "midi": 81,
      "velocity": 1,
      "noteOffVelocity": 0,
      "ticks": 124320,
      "durationTicks": 480
    },
    {
      "Type": "tap",
      "Time": 78.00000000000004,
      "Name": "down",
      "Names": [],
      "midi": 77,
      "velocity": 1,
      "noteOffVelocity": 0,
      "ticks": 124800,
      "durationTicks": 480
    },
    {
      "Type": "tap",
      "Time": 78.30000000000004,
      "Name": "left",
      "Names": [],
      "midi": 79,
      "velocity": 1,
      "noteOffVelocity": 0,
      "ticks": 125280,
      "durationTicks": 480
    },
    {
      "Type": "tap",
      "Time": 78.60000000000005,
      "Name": "up",
      "Names": [],
      "midi": 76,
      "velocity": 1,
      "noteOffVelocity": 0,
      "ticks": 125760,
      "durationTicks": 480
    },
    {
      "Type": "tap",
      "Time": 78.90000000000005,
      "Name": "down",
      "Names": [],
      "midi": 67,
      "velocity": 0.8976377952755905,
      "noteOffVelocity": 0,
      "ticks": 126240,
      "durationTicks": 480
    },
    {
      "Type": "tap",
      "Time": 79.20000000000005,
      "Name": "right",
      "Names": [],
      "midi": 70,
      "velocity": 0.8976377952755905,
      "noteOffVelocity": 0,
      "ticks": 126720,
      "durationTicks": 480
    },
    {
      "Type": "tap",
      "Time": 79.50000000000004,
      "Name": "left",
      "Names": [],
      "midi": 69,
      "velocity": 0.905511811023622,
      "noteOffVelocity": 0,
      "ticks": 127200,
      "durationTicks": 480
    },
    {
      "Type": "tap",
      "Time": 79.80000000000005,
      "Name": "right",
      "Names": [],
      "midi": 85,
      "velocity": 1,
      "noteOffVelocity": 0,
      "ticks": 127680,
      "durationTicks": 240
    },
    {
      "Type": "tap",
      "Time": 79.95000000000006,
      "Name": "left",
      "Names": [],
      "midi": 86,
      "velocity": 1,
      "noteOffVelocity": 0,
      "ticks": 127920,
      "durationTicks": 240
    },
    {
      "Type": "tap",
      "Time": 80.10000000000005,
      "Name": "up",
      "Names": [],
      "midi": 83,
      "velocity": 1,
      "noteOffVelocity": 0,
      "ticks": 128160,
      "durationTicks": 240
    },
    {
      "Type": "tap",
      "Time": 80.25000000000006,
      "Name": "right",
      "Names": [],
      "midi": 86,
      "velocity": 1,
      "noteOffVelocity": 0,
      "ticks": 128400,
      "durationTicks": 240
    },
    {
      "Type": "tap",
      "Time": 80.40000000000005,
      "Name": "down",
      "Names": [],
      "midi": 85,
      "velocity": 1,
      "noteOffVelocity": 0,
      "ticks": 128640,
      "durationTicks": 960
    },
    {
      "Type": "tap",
      "Time": 81.00000000000006,
      "Name": "up",
      "Names": [],
      "midi": 73,
      "velocity": 0.8976377952755905,
      "noteOffVelocity": 0,
      "ticks": 129600,
      "durationTicks": 480
    },
    {
      "Type": "tap",
      "Time": 81.30000000000005,
      "Name": "right",
      "Names": [],
      "midi": 75,
      "velocity": 0.8818897637795275,
      "noteOffVelocity": 0,
      "ticks": 130080,
      "durationTicks": 480
    },
    {
      "Type": "tap",
      "Time": 81.60000000000005,
      "Name": "left",
      "Names": [],
      "midi": 76,
      "velocity": 0.9291338582677166,
      "noteOffVelocity": 0,
      "ticks": 130560,
      "durationTicks": 480
    },
    {
      "Type": "tap",
      "Time": 81.90000000000006,
      "Name": "up",
      "Names": [],
      "midi": 85,
      "velocity": 1,
      "noteOffVelocity": 0,
      "ticks": 131040,
      "durationTicks": 240
    },
    {
      "Type": "tap",
      "Time": 82.05000000000007,
      "Name": "left",
      "Names": [],
      "midi": 86,
      "velocity": 1,
      "noteOffVelocity": 0,
      "ticks": 131280,
      "durationTicks": 240
    },
    {
      "Type": "tap",
      "Time": 82.20000000000006,
      "Name": "down",
      "Names": [],
      "midi": 83,
      "velocity": 1,
      "noteOffVelocity": 0,
      "ticks": 131520,
      "durationTicks": 240
    },
    {
      "Type": "tap",
      "Time": 82.35000000000007,
      "Name": "left",
      "Names": [],
      "midi": 86,
      "velocity": 1,
      "noteOffVelocity": 0,
      "ticks": 131760,
      "durationTicks": 240
    },
    {
      "Type": "tap",
      "Time": 82.50000000000006,
      "Name": "up",
      "Names": [],
      "midi": 85,
      "velocity": 1,
      "noteOffVelocity": 0,
      "ticks": 132000,
      "durationTicks": 960
    },
    {
      "Type": "tap",
      "Time": 83.10000000000007,
      "Name": "right",
      "Names": [],
      "midi": 73,
      "velocity": 0.8976377952755905,
      "noteOffVelocity": 0,
      "ticks": 132960,
      "durationTicks": 480
    },
    {
      "Type": "tap",
      "Time": 83.40000000000006,
      "Name": "up",
      "Names": [],
      "midi": 76,
      "velocity": 0.889763779527559,
      "noteOffVelocity": 0,
      "ticks": 133440,
      "durationTicks": 480
    },
    {
      "Type": "tap",
      "Time": 83.70000000000006,
      "Name": "down",
      "Names": [],
      "midi": 75,
      "velocity": 0.8976377952755905,
      "noteOffVelocity": 0,
      "ticks": 133920,
      "durationTicks": 480
    },
    {
      "Type": "tap",
      "Time": 84.00000000000007,
      "Name": "right",
      "Names": [],
      "midi": 85,
      "velocity": 1,
      "noteOffVelocity": 0,
      "ticks": 134400,
      "durationTicks": 240
    },
    {
      "Type": "tap",
      "Time": 84.15000000000008,
      "Name": "down",
      "Names": [],
      "midi": 86,
      "velocity": 1,
      "noteOffVelocity": 0,
      "ticks": 134640,
      "durationTicks": 240
    },
    {
      "Type": "tap",
      "Time": 84.30000000000007,
      "Name": "down",
      "Names": [],
      "midi": 83,
      "velocity": 1,
      "noteOffVelocity": 0,
      "ticks": 134880,
      "durationTicks": 240
    },
    {
      "Type": "tap",
      "Time": 84.45000000000007,
      "Name": "left",
      "Names": [],
      "midi": 86,
      "velocity": 1,
      "noteOffVelocity": 0,
      "ticks": 135120,
      "durationTicks": 240
    },
    {
      "Type": "tap",
      "Time": 84.60000000000007,
      "Name": "right",
      "Names": [],
      "midi": 85,
      "velocity": 1,
      "noteOffVelocity": 0,
      "ticks": 135360,
      "durationTicks": 960
    },
    {
      "Type": "tap",
      "Time": 85.20000000000007,
      "Name": "right",
      "Names": [],
      "midi": 73,
      "velocity": 0.8976377952755905,
      "noteOffVelocity": 0,
      "ticks": 136320,
      "durationTicks": 240
    },
    {
      "Type": "tap",
      "Time": 85.35000000000008,
      "Name": "right",
      "Names": [],
      "midi": 85,
      "velocity": 1,
      "noteOffVelocity": 0,
      "ticks": 136560,
      "durationTicks": 240
    },
    {
      "Type": "tap",
      "Time": 85.50000000000007,
      "Name": "down",
      "Names": [],
      "midi": 75,
      "velocity": 0.8503937007874016,
      "noteOffVelocity": 0,
      "ticks": 136800,
      "durationTicks": 240
    },
    {
      "Type": "tap",
      "Time": 85.65000000000008,
      "Name": "left",
      "Names": [],
      "midi": 87,
      "velocity": 1,
      "noteOffVelocity": 0,
      "ticks": 137040,
      "durationTicks": 240
    },
    {
      "Type": "tap",
      "Time": 85.80000000000007,
      "Name": "left",
      "Names": [],
      "midi": 76,
      "velocity": 0.8503937007874016,
      "noteOffVelocity": 0,
      "ticks": 137280,
      "durationTicks": 240
    },
    {
      "Type": "tap",
      "Time": 85.95000000000007,
      "Name": "up",
      "Names": [],
      "midi": 88,
      "velocity": 1,
      "noteOffVelocity": 0,
      "ticks": 137520,
      "durationTicks": 240
    },
    {
      "Type": "tap",
      "Time": 86.10000000000008,
      "Name": "down",
      "Names": [],
      "midi": 85,
      "velocity": 1,
      "noteOffVelocity": 0,
      "ticks": 137760,
      "durationTicks": 240
    },
    {
      "Type": "tap",
      "Time": 86.25000000000009,
      "Name": "left",
      "Names": [],
      "midi": 86,
      "velocity": 1,
      "noteOffVelocity": 0,
      "ticks": 138000,
      "durationTicks": 240
    },
    {
      "Type": "tap",
      "Time": 86.40000000000008,
      "Name": "right",
      "Names": [],
      "midi": 83,
      "velocity": 1,
      "noteOffVelocity": 0,
      "ticks": 138240,
      "durationTicks": 240
    },
    {
      "Type": "tap",
      "Time": 86.55000000000008,
      "Name": "left",
      "Names": [],
      "midi": 86,
      "velocity": 1,
      "noteOffVelocity": 0,
      "ticks": 138480,
      "durationTicks": 240
    },
    {
      "Type": "tap",
      "Time": 86.70000000000007,
      "Name": "left",
      "Names": [],
      "midi": 85,
      "velocity": 1,
      "noteOffVelocity": 0,
      "ticks": 138720,
      "durationTicks": 960
    },
    {
      "Type": "tap",
      "Time": 87.30000000000008,
      "Name": "left",
      "Names": [],
      "midi": 73,
      "velocity": 0.8976377952755905,
      "noteOffVelocity": 0,
      "ticks": 139680,
      "durationTicks": 240
    },
    {
      "Type": "tap",
      "Time": 87.45000000000009,
      "Name": "up",
      "Names": [],
      "midi": 85,
      "velocity": 1,
      "noteOffVelocity": 0,
      "ticks": 139920,
      "durationTicks": 240
    },
    {
      "Type": "tap",
      "Time": 87.60000000000008,
      "Name": "up",
      "Names": [],
      "midi": 76,
      "velocity": 0.8503937007874016,
      "noteOffVelocity": 0,
      "ticks": 140160,
      "durationTicks": 240
    },
    {
      "Type": "tap",
      "Time": 87.75000000000009,
      "Name": "left",
      "Names": [],
      "midi": 88,
      "velocity": 1,
      "noteOffVelocity": 0,
      "ticks": 140400,
      "durationTicks": 240
    },
    {
      "Type": "tap",
      "Time": 87.90000000000008,
      "Name": "left",
      "Names": [],
      "midi": 75,
      "velocity": 0.8503937007874016,
      "noteOffVelocity": 0,
      "ticks": 140640,
      "durationTicks": 240
    },
    {
      "Type": "tap",
      "Time": 88.05000000000008,
      "Name": "down",
      "Names": [],
      "midi": 87,
      "velocity": 1,
      "noteOffVelocity": 0,
      "ticks": 140880,
      "durationTicks": 240
    },
    {
      "Type": "tap",
      "Time": 88.20000000000009,
      "Name": "up",
      "Names": [],
      "midi": 76,
      "velocity": 0.8976377952755905,
      "noteOffVelocity": 0,
      "ticks": 141120,
      "durationTicks": 480
    },
    {
      "Type": "tap",
      "Time": 89.40000000000009,
      "Name": "left",
      "Names": [],
      "midi": 81,
      "velocity": 1,
      "noteOffVelocity": 0,
      "ticks": 143040,
      "durationTicks": 480
    },
    {
      "Type": "tap",
      "Time": 90.6000000000001,
      "Name": "up",
      "Names": [],
      "midi": 80,
      "velocity": 1,
      "noteOffVelocity": 0,
      "ticks": 144960,
      "durationTicks": 1920
    },
    {
      "Type": "tap",
      "Time": 91.80000000000008,
      "Name": "right",
      "Names": [],
      "midi": 76,
      "velocity": 1,
      "noteOffVelocity": 0,
      "ticks": 146880,
      "durationTicks": 960
    },
    {
      "Type": "tap",
      "Time": 92.40000000000009,
      "Name": "down",
      "Names": [],
      "midi": 75,
      "velocity": 0.984251968503937,
      "noteOffVelocity": 0,
      "ticks": 147840,
      "durationTicks": 960
    },
    {
      "Type": "tap",
      "Time": 93.00000000000009,
      "Name": "down",
      "Names": [],
      "midi": 73,
      "velocity": 1,
      "noteOffVelocity": 0,
      "ticks": 148800,
      "durationTicks": 1920
    },
    {
      "Type": "tap",
      "Time": 94.20000000000009,
      "Name": "down",
      "Names": [],
      "midi": 83,
      "velocity": 1,
      "noteOffVelocity": 0,
      "ticks": 150720,
      "durationTicks": 1920
    },
    {
      "Type": "tap",
      "Time": 95.40000000000009,
      "Name": "down",
      "Names": [],
      "midi": 85,
      "velocity": 1,
      "noteOffVelocity": 0,
      "ticks": 152640,
      "durationTicks": 480
    },
    {
      "Type": "tap",
      "Time": 95.70000000000009,
      "Name": "down",
      "Names": [],
      "midi": 80,
      "velocity": 0.968503937007874,
      "noteOffVelocity": 0,
      "ticks": 153120,
      "durationTicks": 1920
    },
    {
      "Type": "tap",
      "Time": 96.90000000000009,
      "Name": "down",
      "Names": [],
      "midi": 76,
      "velocity": 0.984251968503937,
      "noteOffVelocity": 0,
      "ticks": 155040,
      "durationTicks": 480
    },
    {
      "Type": "tap",
      "Time": 97.20000000000009,
      "Name": "down",
      "Names": [],
      "midi": 78,
      "velocity": 1,
      "noteOffVelocity": 0,
      "ticks": 155520,
      "durationTicks": 960
    },
    {
      "Type": "tap",
      "Time": 97.80000000000008,
      "Name": "up",
      "Names": [],
      "midi": 80,
      "velocity": 1,
      "noteOffVelocity": 0,
      "ticks": 156480,
      "durationTicks": 1920
    },
    {
      "Type": "tap",
      "Time": 99.30000000000008,
      "Name": "right",
      "Names": [],
      "midi": 76,
      "velocity": 1,
      "noteOffVelocity": 0,
      "ticks": 158880,
      "durationTicks": 480
    },
    {
      "Type": "tap",
      "Time": 99.60000000000008,
      "Name": "down",
      "Names": [],
      "midi": 73,
      "velocity": 0.9763779527559056,
      "noteOffVelocity": 0,
      "ticks": 159360,
      "durationTicks": 960
    },
    {
      "Type": "tap",
      "Time": 100.20000000000009,
      "Name": "up",
      "Names": [],
      "midi": 75,
      "velocity": 1,
      "noteOffVelocity": 0,
      "ticks": 160320,
      "durationTicks": 960
    },
    {
      "Type": "tap",
      "Time": 100.80000000000008,
      "Name": "down",
      "Names": [],
      "midi": 66,
      "velocity": 0.905511811023622,
      "noteOffVelocity": 0,
      "ticks": 161280,
      "durationTicks": 480
    },
    {
      "Type": "tap",
      "Time": 101.10000000000008,
      "Name": "down",
      "Names": [],
      "midi": 59,
      "velocity": 0.8740157480314961,
      "noteOffVelocity": 0,
      "ticks": 161760,
      "durationTicks": 480
    },
    {
      "Type": "tap",
      "Time": 101.40000000000009,
      "Name": "right",
      "Names": [],
      "midi": 58,
      "velocity": 0.9291338582677166,
      "noteOffVelocity": 0,
      "ticks": 162240,
      "durationTicks": 1920
    },
    {
      "Type": "tap",
      "Time": 102.60000000000008,
      "Name": "up",
      "Names": [],
      "midi": 80,
      "velocity": 1,
      "noteOffVelocity": 0,
      "ticks": 164160,
      "durationTicks": 1920
    },
    {
      "Type": "tap",
      "Time": 103.80000000000008,
      "Name": "right",
      "Names": [],
      "midi": 83,
      "velocity": 1,
      "noteOffVelocity": 0,
      "ticks": 166080,
      "durationTicks": 1920
    },
    {
      "Type": "tap",
      "Time": 105.00000000000009,
      "Name": "left",
      "Names": [],
      "midi": 85,
      "velocity": 1,
      "noteOffVelocity": 0,
      "ticks": 168000,
      "durationTicks": 480
    },
    {
      "Type": "tap",
      "Time": 105.30000000000008,
      "Name": "down",
      "Names": [],
      "midi": 80,
      "velocity": 0.968503937007874,
      "noteOffVelocity": 0,
      "ticks": 168480,
      "durationTicks": 1440
    },
    {
      "Type": "tap",
      "Time": 106.20000000000009,
      "Name": "up",
      "Names": [],
      "midi": 88,
      "velocity": 1,
      "noteOffVelocity": 0,
      "ticks": 169920,
      "durationTicks": 480
    },
    {
      "Type": "tap",
      "Time": 106.50000000000009,
      "Name": "right",
      "Names": [],
      "midi": 87,
      "velocity": 1,
      "noteOffVelocity": 0,
      "ticks": 170400,
      "durationTicks": 480
    },
    {
      "Type": "tap",
      "Time": 106.80000000000008,
      "Name": "left",
      "Names": [],
      "midi": 88,
      "velocity": 1,
      "noteOffVelocity": 0,
      "ticks": 170880,
      "durationTicks": 960
    },
    {
      "Type": "tap",
      "Time": 107.40000000000009,
      "Name": "up",
      "Names": [],
      "midi": 83,
      "velocity": 0.9921259842519685,
      "noteOffVelocity": 0,
      "ticks": 171840,
      "durationTicks": 960
    },
    {
      "Type": "tap",
      "Time": 108.00000000000009,
      "Name": "right",
      "Names": [],
      "midi": 82,
      "velocity": 0.952755905511811,
      "noteOffVelocity": 0,
      "ticks": 172800,
      "durationTicks": 960
    },
    {
      "Type": "tap",
      "Time": 108.60000000000008,
      "Name": "right",
      "Names": [],
      "midi": 76,
      "velocity": 0.9448818897637795,
      "noteOffVelocity": 0,
      "ticks": 173760,
      "durationTicks": 960
    },
    {
      "Type": "tap",
      "Time": 109.20000000000009,
      "Name": "up",
      "Names": [],
      "midi": 78,
      "velocity": 0.984251968503937,
      "noteOffVelocity": 0,
      "ticks": 174720,
      "durationTicks": 960
    },
    {
      "Type": "tap",
      "Time": 109.80000000000008,
      "Name": "right",
      "Names": [],
      "midi": 80,
      "velocity": 1,
      "noteOffVelocity": 0,
      "ticks": 175680,
      "durationTicks": 960
    },
    {
      "Type": "tap",
      "Time": 110.40000000000009,
      "Name": "down",
      "Names": [],
      "midi": 75,
      "velocity": 0.9606299212598425,
      "noteOffVelocity": 0,
      "ticks": 176640,
      "durationTicks": 480
    },
    {
      "Type": "tap",
      "Time": 110.70000000000009,
      "Name": "down",
      "Names": [],
      "midi": 76,
      "velocity": 0.984251968503937,
      "noteOffVelocity": 0,
      "ticks": 177120,
      "durationTicks": 480
    },
    {
      "Type": "tap",
      "Time": 111.00000000000009,
      "Name": "left",
      "Names": [],
      "midi": 75,
      "velocity": 1,
      "noteOffVelocity": 0,
      "ticks": 177600,
      "durationTicks": 1440
    },
    {
      "Type": "tap",
      "Time": 111.90000000000009,
      "Name": "up",
      "Names": [],
      "midi": 71,
      "velocity": 0.968503937007874,
      "noteOffVelocity": 0,
      "ticks": 179040,
      "durationTicks": 480
    },
    {
      "Type": "tap",
      "Time": 112.20000000000009,
      "Name": "right",
      "Names": [],
      "midi": 73,
      "velocity": 1,
      "noteOffVelocity": 0,
      "ticks": 179520,
      "durationTicks": 1920
    },
    {
      "Type": "tap",
      "Time": 113.40000000000009,
      "Name": "up",
      "Names": [],
      "midi": 83,
      "velocity": 1,
      "noteOffVelocity": 0,
      "ticks": 181440,
      "durationTicks": 1920
    },
    {
      "Type": "tap",
      "Time": 114.60000000000008,
      "Name": "up",
      "Names": [],
      "midi": 85,
      "velocity": 1,
      "noteOffVelocity": 0,
      "ticks": 183360,
      "durationTicks": 480
    },
    {
      "Type": "tap",
      "Time": 114.90000000000009,
      "Name": "down",
      "Names": [],
      "midi": 80,
      "velocity": 0.968503937007874,
      "noteOffVelocity": 0,
      "ticks": 183840,
      "durationTicks": 1920
    },
    {
      "Type": "tap",
      "Time": 116.10000000000008,
      "Name": "down",
      "Names": [],
      "midi": 76,
      "velocity": 0.984251968503937,
      "noteOffVelocity": 0,
      "ticks": 185760,
      "durationTicks": 480
    },
    {
      "Type": "tap",
      "Time": 116.40000000000009,
      "Name": "down",
      "Names": [],
      "midi": 78,
      "velocity": 1,
      "noteOffVelocity": 0,
      "ticks": 186240,
      "durationTicks": 960
    },
    {
      "Type": "tap",
      "Time": 117.00000000000009,
      "Name": "right",
      "Names": [],
      "midi": 80,
      "velocity": 1,
      "noteOffVelocity": 0,
      "ticks": 187200,
      "durationTicks": 1920
    },
    {
      "Type": "tap",
      "Time": 118.50000000000009,
      "Name": "down",
      "Names": [],
      "midi": 76,
      "velocity": 1,
      "noteOffVelocity": 0,
      "ticks": 189600,
      "durationTicks": 480
    },
    {
      "Type": "tap",
      "Time": 118.80000000000008,
      "Name": "up",
      "Names": [],
      "midi": 73,
      "velocity": 0.9763779527559056,
      "noteOffVelocity": 0,
      "ticks": 190080,
      "durationTicks": 960
    },
    {
      "Type": "tap",
      "Time": 119.40000000000009,
      "Name": "left",
      "Names": [],
      "midi": 75,
      "velocity": 1,
      "noteOffVelocity": 0,
      "ticks": 191040,
      "durationTicks": 960
    },
    {
      "Type": "tap",
      "Time": 120.00000000000009,
      "Name": "left",
      "Names": [],
      "midi": 66,
      "velocity": 0.905511811023622,
      "noteOffVelocity": 0,
      "ticks": 192000,
      "durationTicks": 480
    },
    {
      "Type": "tap",
      "Time": 120.30000000000008,
      "Name": "right",
      "Names": [],
      "midi": 59,
      "velocity": 0.8740157480314961,
      "noteOffVelocity": 0,
      "ticks": 192480,
      "durationTicks": 480
    },
    {
      "Type": "tap",
      "Time": 120.60000000000008,
      "Name": "up",
      "Names": [],
      "midi": 58,
      "velocity": 0.9291338582677166,
      "noteOffVelocity": 0,
      "ticks": 192960,
      "durationTicks": 1920
    },
    {
      "Type": "tap",
      "Time": 121.80000000000008,
      "Name": "left",
      "Names": [],
      "midi": 80,
      "velocity": 1,
      "noteOffVelocity": 0,
      "ticks": 194880,
      "durationTicks": 1920
    },
    {
      "Type": "tap",
      "Time": 123.00000000000009,
      "Name": "down",
      "Names": [],
      "midi": 83,
      "velocity": 1,
      "noteOffVelocity": 0,
      "ticks": 196800,
      "durationTicks": 1920
    },
    {
      "Type": "tap",
      "Time": 124.20000000000009,
      "Name": "left",
      "Names": [],
      "midi": 85,
      "velocity": 1,
      "noteOffVelocity": 0,
      "ticks": 198720,
      "durationTicks": 480
    },
    {
      "Type": "tap",
      "Time": 124.50000000000009,
      "Name": "left",
      "Names": [],
      "midi": 80,
      "velocity": 0.968503937007874,
      "noteOffVelocity": 0,
      "ticks": 199200,
      "durationTicks": 1440
    },
    {
      "Type": "tap",
      "Time": 125.40000000000009,
      "Name": "up",
      "Names": [],
      "midi": 88,
      "velocity": 1,
      "noteOffVelocity": 0,
      "ticks": 200640,
      "durationTicks": 480
    },
    {
      "Type": "tap",
      "Time": 125.70000000000007,
      "Name": "left",
      "Names": [],
      "midi": 87,
      "velocity": 1,
      "noteOffVelocity": 0,
      "ticks": 201120,
      "durationTicks": 480
    },
    {
      "Type": "tap",
      "Time": 126.00000000000009,
      "Name": "down",
      "Names": [],
      "midi": 88,
      "velocity": 1,
      "noteOffVelocity": 0,
      "ticks": 201600,
      "durationTicks": 960
    },
    {
      "Type": "tap",
      "Time": 126.60000000000008,
      "Name": "up",
      "Names": [],
      "midi": 83,
      "velocity": 0.9921259842519685,
      "noteOffVelocity": 0,
      "ticks": 202560,
      "durationTicks": 960
    },
    {
      "Type": "tap",
      "Time": 127.20000000000007,
      "Name": "down",
      "Names": [],
      "midi": 82,
      "velocity": 0.952755905511811,
      "noteOffVelocity": 0,
      "ticks": 203520,
      "durationTicks": 960
    },
    {
      "Type": "tap",
      "Time": 127.80000000000008,
      "Name": "right",
      "Names": [],
      "midi": 76,
      "velocity": 0.9448818897637795,
      "noteOffVelocity": 0,
      "ticks": 204480,
      "durationTicks": 960
    },
    {
      "Type": "tap",
      "Time": 128.4000000000001,
      "Name": "up",
      "Names": [],
      "midi": 78,
      "velocity": 0.984251968503937,
      "noteOffVelocity": 0,
      "ticks": 205440,
      "durationTicks": 960
    },
    {
      "Type": "tap",
      "Time": 129.00000000000009,
      "Name": "up",
      "Names": [],
      "midi": 80,
      "velocity": 1,
      "noteOffVelocity": 0,
      "ticks": 206400,
      "durationTicks": 960
    },
    {
      "Type": "tap",
      "Time": 129.60000000000008,
      "Name": "right",
      "Names": [],
      "midi": 75,
      "velocity": 0.9606299212598425,
      "noteOffVelocity": 0,
      "ticks": 207360,
      "durationTicks": 480
    },
    {
      "Type": "tap",
      "Time": 129.9000000000001,
      "Name": "left",
      "Names": [],
      "midi": 76,
      "velocity": 0.984251968503937,
      "noteOffVelocity": 0,
      "ticks": 207840,
      "durationTicks": 480
    },
    {
      "Type": "tap",
      "Time": 130.20000000000007,
      "Name": "down",
      "Names": [],
      "midi": 75,
      "velocity": 1,
      "noteOffVelocity": 0,
      "ticks": 208320,
      "durationTicks": 1440
    },
    {
      "Type": "tap",
      "Time": 131.10000000000008,
      "Name": "up",
      "Names": [],
      "midi": 71,
      "velocity": 0.952755905511811,
      "noteOffVelocity": 0,
      "ticks": 209760,
      "durationTicks": 480
    },
    {
      "Type": "tap",
      "Time": 131.4000000000001,
      "Name": "right",
      "Names": [],
      "midi": 73,
      "velocity": 1,
      "noteOffVelocity": 0,
      "ticks": 210240,
      "durationTicks": 480
    },
    {
      "Type": "tap",
      "Time": 131.70000000000007,
      "Name": "down",
      "Names": [],
      "midi": 61,
      "velocity": 0.8503937007874016,
      "noteOffVelocity": 0,
      "ticks": 210720,
      "durationTicks": 480
    },
    {
      "Type": "tap",
      "Time": 132.00000000000009,
      "Name": "up",
      "Names": [],
      "midi": 75,
      "velocity": 1,
      "noteOffVelocity": 0,
      "ticks": 211200,
      "durationTicks": 480
    },
    {
      "Type": "tap",
      "Time": 132.30000000000007,
      "Name": "up",
      "Names": [],
      "midi": 76,
      "velocity": 1,
      "noteOffVelocity": 0,
      "ticks": 211680,
      "durationTicks": 480
    },
    {
      "Type": "tap",
      "Time": 132.60000000000008,
      "Name": "right",
      "Names": [],
      "midi": 83,
      "velocity": 1,
      "noteOffVelocity": 0,
      "ticks": 212160,
      "durationTicks": 1440
    },
    {
      "Type": "tap",
      "Time": 133.50000000000009,
      "Name": "right",
      "Names": [],
      "midi": 82,
      "velocity": 1,
      "noteOffVelocity": 0,
      "ticks": 213600,
      "durationTicks": 480
    },
    {
      "Type": "tap",
      "Time": 133.80000000000007,
      "Name": "right",
      "Names": [],
      "midi": 85,
      "velocity": 1,
      "noteOffVelocity": 0,
      "ticks": 214080,
      "durationTicks": 960
    },
    {
      "Type": "tap",
      "Time": 134.4000000000001,
      "Name": "down",
      "Names": [],
      "midi": 80,
      "velocity": 0.9606299212598425,
      "noteOffVelocity": 0,
      "ticks": 215040,
      "durationTicks": 960
    },
    {
      "Type": "tap",
      "Time": 135.00000000000009,
      "Name": "up",
      "Names": [],
      "midi": 75,
      "velocity": 0.9606299212598425,
      "noteOffVelocity": 0,
      "ticks": 216000,
      "durationTicks": 480
    },
    {
      "Type": "tap",
      "Time": 135.30000000000007,
      "Name": "down",
      "Names": [],
      "midi": 76,
      "velocity": 0.9606299212598425,
      "noteOffVelocity": 0,
      "ticks": 216480,
      "durationTicks": 480
    },
    {
      "Type": "tap",
      "Time": 135.60000000000008,
      "Name": "down",
      "Names": [],
      "midi": 78,
      "velocity": 1,
      "noteOffVelocity": 0,
      "ticks": 216960,
      "durationTicks": 960
    },
    {
      "Type": "tap",
      "Time": 136.20000000000007,
      "Name": "left",
      "Names": [],
      "midi": 76,
      "velocity": 1,
      "noteOffVelocity": 0,
      "ticks": 217920,
      "durationTicks": 480
    },
    {
      "Type": "tap",
      "Time": 136.50000000000009,
      "Name": "left",
      "Names": [],
      "midi": 80,
      "velocity": 1,
      "noteOffVelocity": 0,
      "ticks": 218400,
      "durationTicks": 1440
    },
    {
      "Type": "tap",
      "Time": 137.4000000000001,
      "Name": "up",
      "Names": [],
      "midi": 71,
      "velocity": 0.968503937007874,
      "noteOffVelocity": 0,
      "ticks": 219840,
      "durationTicks": 480
    },
    {
      "Type": "tap",
      "Time": 137.70000000000007,
      "Name": "up",
      "Names": [],
      "midi": 76,
      "velocity": 1,
      "noteOffVelocity": 0,
      "ticks": 220320,
      "durationTicks": 480
    },
    {
      "Type": "tap",
      "Time": 138.00000000000009,
      "Name": "up",
      "Names": [],
      "midi": 73,
      "velocity": 0.968503937007874,
      "noteOffVelocity": 0,
      "ticks": 220800,
      "durationTicks": 960
    },
    {
      "Type": "tap",
      "Time": 138.60000000000008,
      "Name": "up",
      "Names": [],
      "midi": 75,
      "velocity": 1,
      "noteOffVelocity": 0,
      "ticks": 221760,
      "durationTicks": 240
    },
    {
      "Type": "tap",
      "Time": 138.75000000000009,
      "Name": "up",
      "Names": [],
      "midi": 63,
      "velocity": 0.8503937007874016,
      "noteOffVelocity": 0,
      "ticks": 222000,
      "durationTicks": 240
    },
    {
      "Type": "tap",
      "Time": 138.9000000000001,
      "Name": "up",
      "Names": [],
      "midi": 64,
      "velocity": 0.8661417322834646,
      "noteOffVelocity": 0,
      "ticks": 222240,
      "durationTicks": 480
    },
    {
      "Type": "tap",
      "Time": 139.20000000000007,
      "Name": "up",
      "Names": [],
      "midi": 66,
      "velocity": 0.9291338582677166,
      "noteOffVelocity": 0,
      "ticks": 222720,
      "durationTicks": 480
    },
    {
      "Type": "tap",
      "Time": 139.50000000000009,
      "Name": "up",
      "Names": [],
      "midi": 59,
      "velocity": 0.8503937007874016,
      "noteOffVelocity": 0,
      "ticks": 223200,
      "durationTicks": 480
    },
    {
      "Type": "tap",
      "Time": 139.80000000000007,
      "Name": "down",
      "Names": [],
      "midi": 58,
      "velocity": 0.8976377952755905,
      "noteOffVelocity": 0,
      "ticks": 223680,
      "durationTicks": 1920
    },
    {
      "Type": "tap",
      "Time": 141.00000000000009,
      "Name": "left",
      "Names": [],
      "midi": 73,
      "velocity": 1,
      "noteOffVelocity": 0,
      "ticks": 225600,
      "durationTicks": 480
    },
    {
      "Type": "tap",
      "Time": 141.30000000000007,
      "Name": "down",
      "Names": [],
      "midi": 61,
      "velocity": 0.9133858267716536,
      "noteOffVelocity": 0,
      "ticks": 226080,
      "durationTicks": 480
    },
    {
      "Type": "tap",
      "Time": 141.60000000000008,
      "Name": "left",
      "Names": [],
      "midi": 75,
      "velocity": 1,
      "noteOffVelocity": 0,
      "ticks": 226560,
      "durationTicks": 480
    },
    {
      "Type": "tap",
      "Time": 141.9000000000001,
      "Name": "up",
      "Names": [],
      "midi": 76,
      "velocity": 1,
      "noteOffVelocity": 0,
      "ticks": 227040,
      "durationTicks": 480
    },
    {
      "Type": "tap",
      "Time": 142.20000000000007,
      "Name": "up",
      "Names": [],
      "midi": 83,
      "velocity": 1,
      "noteOffVelocity": 0,
      "ticks": 227520,
      "durationTicks": 1440
    },
    {
      "Type": "tap",
      "Time": 143.10000000000008,
      "Name": "left",
      "Names": [],
      "midi": 82,
      "velocity": 1,
      "noteOffVelocity": 0,
      "ticks": 228960,
      "durationTicks": 480
    },
    {
      "Type": "tap",
      "Time": 143.4000000000001,
      "Name": "up",
      "Names": [],
      "midi": 85,
      "velocity": 1,
      "noteOffVelocity": 0,
      "ticks": 229440,
      "durationTicks": 480
    },
    {
      "Type": "tap",
      "Time": 143.70000000000007,
      "Name": "up",
      "Names": [],
      "midi": 80,
      "velocity": 0.9606299212598425,
      "noteOffVelocity": 0,
      "ticks": 229920,
      "durationTicks": 960
    },
    {
      "Type": "tap",
      "Time": 144.30000000000007,
      "Name": "down",
      "Names": [],
      "midi": 76,
      "velocity": 0.9133858267716536,
      "noteOffVelocity": 0,
      "ticks": 230880,
      "durationTicks": 480
    },
    {
      "Type": "tap",
      "Time": 144.60000000000008,
      "Name": "left",
      "Names": [],
      "midi": 88,
      "velocity": 1,
      "noteOffVelocity": 0,
      "ticks": 231360,
      "durationTicks": 240
    },
    {
      "Type": "tap",
      "Time": 144.75000000000009,
      "Name": "up",
      "Names": [],
      "midi": 76,
      "velocity": 0.8740157480314961,
      "noteOffVelocity": 0,
      "ticks": 231600,
      "durationTicks": 240
    },
    {
      "Type": "tap",
      "Time": 144.9000000000001,
      "Name": "right",
      "Names": [],
      "midi": 87,
      "velocity": 1,
      "noteOffVelocity": 0,
      "ticks": 231840,
      "durationTicks": 240
    },
    {
      "Type": "tap",
      "Time": 145.05000000000007,
      "Name": "down",
      "Names": [],
      "midi": 75,
      "velocity": 0.8503937007874016,
      "noteOffVelocity": 0,
      "ticks": 232080,
      "durationTicks": 240
    },
    {
      "Type": "tap",
      "Time": 145.20000000000007,
      "Name": "right",
      "Names": [],
      "midi": 88,
      "velocity": 1,
      "noteOffVelocity": 0,
      "ticks": 232320,
      "durationTicks": 960
    },
    {
      "Type": "tap",
      "Time": 145.80000000000007,
      "Name": "right",
      "Names": [],
      "midi": 83,
      "velocity": 1,
      "noteOffVelocity": 0,
      "ticks": 233280,
      "durationTicks": 480
    },
    {
      "Type": "tap",
      "Time": 146.10000000000008,
      "Name": "up",
      "Names": [],
      "midi": 85,
      "velocity": 1,
      "noteOffVelocity": 0,
      "ticks": 233760,
      "durationTicks": 480
    },
    {
      "Type": "tap",
      "Time": 146.4000000000001,
      "Name": "right",
      "Names": [],
      "midi": 82,
      "velocity": 0.968503937007874,
      "noteOffVelocity": 0,
      "ticks": 234240,
      "durationTicks": 480
    },
    {
      "Type": "tap",
      "Time": 146.70000000000007,
      "Name": "right",
      "Names": [],
      "midi": 78,
      "velocity": 0.889763779527559,
      "noteOffVelocity": 0,
      "ticks": 234720,
      "durationTicks": 480
    },
    {
      "Type": "tap",
      "Time": 147.00000000000009,
      "Name": "left",
      "Names": [],
      "midi": 76,
      "velocity": 0.9133858267716536,
      "noteOffVelocity": 0,
      "ticks": 235200,
      "durationTicks": 1440
    },
    {
      "Type": "tap",
      "Time": 147.9000000000001,
      "Name": "down",
      "Names": [],
      "midi": 78,
      "velocity": 1,
      "noteOffVelocity": 0,
      "ticks": 236640,
      "durationTicks": 480
    },
    {
      "Type": "tap",
      "Time": 148.20000000000007,
      "Name": "left",
      "Names": [],
      "midi": 80,
      "velocity": 1,
      "noteOffVelocity": 0,
      "ticks": 237120,
      "durationTicks": 960
    },
    {
      "Type": "tap",
      "Time": 148.80000000000007,
      "Name": "right",
      "Names": [],
      "midi": 75,
      "velocity": 0.952755905511811,
      "noteOffVelocity": 0,
      "ticks": 238080,
      "durationTicks": 480
    },
    {
      "Type": "tap",
      "Time": 149.10000000000008,
      "Name": "left",
      "Names": [],
      "midi": 76,
      "velocity": 0.984251968503937,
      "noteOffVelocity": 0,
      "ticks": 238560,
      "durationTicks": 480
    },
    {
      "Type": "tap",
      "Time": 149.4000000000001,
      "Name": "down",
      "Names": [],
      "midi": 75,
      "velocity": 1,
      "noteOffVelocity": 0,
      "ticks": 239040,
      "durationTicks": 1440
    },
    {
      "Type": "tap",
      "Time": 150.30000000000007,
      "Name": "left",
      "Names": [],
      "midi": 71,
      "velocity": 0.9448818897637795,
      "noteOffVelocity": 0,
      "ticks": 240480,
      "durationTicks": 480
    },
    {
      "Type": "tap",
      "Time": 150.60000000000008,
      "Name": "up",
      "Names": [],
      "midi": 73,
      "velocity": 1,
      "noteOffVelocity": 0,
      "ticks": 240960,
      "durationTicks": 240
    },
    {
      "Type": "tap",
      "Time": 150.75000000000009,
      "Name": "up",
      "Names": [],
      "midi": 83,
      "velocity": 1,
      "noteOffVelocity": 0,
      "ticks": 241200,
      "durationTicks": 960
    },
    {
      "Type": "tap",
      "Time": 150.75000000000009,
      "Name": "down",
      "Names": [],
      "midi": 88,
      "velocity": 1,
      "noteOffVelocity": 0,
      "ticks": 241200,
      "durationTicks": 960
    },
    {
      "Type": "tap",
      "Time": 151.35000000000008,
      "Name": "down",
      "Names": [],
      "midi": 75,
      "velocity": 1,
      "noteOffVelocity": 0,
      "ticks": 242160,
      "durationTicks": 240
    },
    {
      "Type": "tap",
      "Time": 151.35000000000008,
      "Name": "up",
      "Names": [],
      "midi": 80,
      "velocity": 1,
      "noteOffVelocity": 0,
      "ticks": 242160,
      "durationTicks": 240
    },
    {
      "Type": "tap",
      "Time": 151.50000000000009,
      "Name": "right",
      "Names": [],
      "midi": 76,
      "velocity": 1,
      "noteOffVelocity": 0,
      "ticks": 242400,
      "durationTicks": 480
    },
    {
      "Type": "tap",
      "Time": 151.50000000000009,
      "Name": "left",
      "Names": [],
      "midi": 85,
      "velocity": 1,
      "noteOffVelocity": 0,
      "ticks": 242400,
      "durationTicks": 480
    },
    {
      "Type": "tap",
      "Time": 151.80000000000007,
      "Name": "up",
      "Names": [],
      "midi": 76,
      "velocity": 1,
      "noteOffVelocity": 0,
      "ticks": 242880,
      "durationTicks": 1440
    },
    {
      "Type": "tap",
      "Time": 151.80000000000007,
      "Name": "left",
      "Names": [],
      "midi": 83,
      "velocity": 1,
      "noteOffVelocity": 0,
      "ticks": 242880,
      "durationTicks": 1440
    },
    {
      "Type": "tap",
      "Time": 152.70000000000007,
      "Name": "left",
      "Names": [],
      "midi": 82,
      "velocity": 0.9921259842519685,
      "noteOffVelocity": 0,
      "ticks": 244320,
      "durationTicks": 480
    },
    {
      "Type": "tap",
      "Time": 153.00000000000009,
      "Name": "right",
      "Names": [],
      "midi": 85,
      "velocity": 1,
      "noteOffVelocity": 0,
      "ticks": 244800,
      "durationTicks": 480
    },
    {
      "Type": "tap",
      "Time": 153.00000000000009,
      "Name": "down",
      "Names": [],
      "midi": 92,
      "velocity": 1,
      "noteOffVelocity": 0,
      "ticks": 244800,
      "durationTicks": 480
    },
    {
      "Type": "tap",
      "Time": 153.30000000000007,
      "Name": "right",
      "Names": [],
      "midi": 87,
      "velocity": 1,
      "noteOffVelocity": 0,
      "ticks": 245280,
      "durationTicks": 480
    },
    {
      "Type": "tap",
      "Time": 153.60000000000008,
      "Name": "down",
      "Names": [],
      "midi": 88,
      "velocity": 1,
      "noteOffVelocity": 0,
      "ticks": 245760,
      "durationTicks": 960
    },
    {
      "Type": "tap",
      "Time": 154.20000000000007,
      "Name": "right",
      "Names": [],
      "midi": 75,
      "velocity": 0.8976377952755905,
      "noteOffVelocity": 0,
      "ticks": 246720,
      "durationTicks": 480
    },
    {
      "Type": "tap",
      "Time": 154.50000000000009,
      "Name": "right",
      "Names": [],
      "midi": 76,
      "velocity": 0.889763779527559,
      "noteOffVelocity": 0,
      "ticks": 247200,
      "durationTicks": 480
    },
    {
      "Type": "tap",
      "Time": 154.80000000000007,
      "Name": "up",
      "Names": [],
      "midi": 78,
      "velocity": 1,
      "noteOffVelocity": 0,
      "ticks": 247680,
      "durationTicks": 960
    },
    {
      "Type": "tap",
      "Time": 154.80000000000007,
      "Name": "down",
      "Names": [],
      "midi": 83,
      "velocity": 1,
      "noteOffVelocity": 0,
      "ticks": 247680,
      "durationTicks": 960
    },
    {
      "Type": "tap",
      "Time": 155.4000000000001,
      "Name": "up",
      "Names": [],
      "midi": 76,
      "velocity": 1,
      "noteOffVelocity": 0,
      "ticks": 248640,
      "durationTicks": 480
    },
    {
      "Type": "tap",
      "Time": 155.4000000000001,
      "Name": "up",
      "Names": [],
      "midi": 83,
      "velocity": 1,
      "noteOffVelocity": 0,
      "ticks": 248640,
      "durationTicks": 480
    },
    {
      "Type": "tap",
      "Time": 155.70000000000007,
      "Name": "right",
      "Names": [],
      "midi": 80,
      "velocity": 0.9921259842519685,
      "noteOffVelocity": 0,
      "ticks": 249120,
      "durationTicks": 1440
    },
    {
      "Type": "tap",
      "Time": 156.60000000000008,
      "Name": "down",
      "Names": [],
      "midi": 71,
      "velocity": 1,
      "noteOffVelocity": 0,
      "ticks": 250560,
      "durationTicks": 480
    },
    {
      "Type": "tap",
      "Time": 156.60000000000008,
      "Name": "right",
      "Names": [],
      "midi": 80,
      "velocity": 1,
      "noteOffVelocity": 0,
      "ticks": 250560,
      "durationTicks": 480
    },
    {
      "Type": "tap",
      "Time": 156.9000000000001,
      "Name": "down",
      "Names": [],
      "midi": 76,
      "velocity": 0.937007874015748,
      "noteOffVelocity": 0,
      "ticks": 251040,
      "durationTicks": 480
    },
    {
      "Type": "tap",
      "Time": 157.2000000000001,
      "Name": "down",
      "Names": [],
      "midi": 73,
      "velocity": 0.9921259842519685,
      "noteOffVelocity": 0,
      "ticks": 251520,
      "durationTicks": 960
    },
    {
      "Type": "tap",
      "Time": 157.2000000000001,
      "Name": "right",
      "Names": [],
      "midi": 78,
      "velocity": 0.9921259842519685,
      "noteOffVelocity": 0,
      "ticks": 251520,
      "durationTicks": 960
    },
    {
      "Type": "tap",
      "Time": 157.80000000000007,
      "Name": "left",
      "Names": [],
      "midi": 75,
      "velocity": 1,
      "noteOffVelocity": 0,
      "ticks": 252480,
      "durationTicks": 240
    },
    {
      "Type": "tap",
      "Time": 157.9500000000001,
      "Name": "left",
      "Names": [],
      "midi": 63,
      "velocity": 0.8503937007874016,
      "noteOffVelocity": 0,
      "ticks": 252720,
      "durationTicks": 240
    },
    {
      "Type": "tap",
      "Time": 158.10000000000008,
      "Name": "right",
      "Names": [],
      "midi": 64,
      "velocity": 0.8503937007874016,
      "noteOffVelocity": 0,
      "ticks": 252960,
      "durationTicks": 480
    },
    {
      "Type": "tap",
      "Time": 158.4000000000001,
      "Name": "left",
      "Names": [],
      "midi": 66,
      "velocity": 0.905511811023622,
      "noteOffVelocity": 0,
      "ticks": 253440,
      "durationTicks": 480
    },
    {
      "Type": "tap",
      "Time": 158.7000000000001,
      "Name": "down",
      "Names": [],
      "midi": 59,
      "velocity": 0.8503937007874016,
      "noteOffVelocity": 0,
      "ticks": 253920,
      "durationTicks": 480
    },
    {
      "Type": "tap",
      "Time": 159.00000000000009,
      "Name": "right",
      "Names": [],
      "midi": 58,
      "velocity": 0.8976377952755905,
      "noteOffVelocity": 0,
      "ticks": 254400,
      "durationTicks": 1920
    },
    {
      "Type": "tap",
      "Time": 160.2000000000001,
      "Name": "right",
      "Names": [],
      "midi": 73,
      "velocity": 1,
      "noteOffVelocity": 0,
      "ticks": 256320,
      "durationTicks": 240
    },
    {
      "Type": "tap",
      "Time": 160.35000000000008,
      "Name": "down",
      "Names": [],
      "midi": 83,
      "velocity": 1,
      "noteOffVelocity": 0,
      "ticks": 256560,
      "durationTicks": 960
    },
    {
      "Type": "tap",
      "Time": 160.35000000000008,
      "Name": "left",
      "Names": [],
      "midi": 88,
      "velocity": 1,
      "noteOffVelocity": 0,
      "ticks": 256560,
      "durationTicks": 960
    },
    {
      "Type": "tap",
      "Time": 160.9500000000001,
      "Name": "right",
      "Names": [],
      "midi": 75,
      "velocity": 1,
      "noteOffVelocity": 0,
      "ticks": 257520,
      "durationTicks": 240
    },
    {
      "Type": "tap",
      "Time": 160.9500000000001,
      "Name": "right",
      "Names": [],
      "midi": 80,
      "velocity": 1,
      "noteOffVelocity": 0,
      "ticks": 257520,
      "durationTicks": 240
    },
    {
      "Type": "tap",
      "Time": 161.10000000000008,
      "Name": "right",
      "Names": [],
      "midi": 76,
      "velocity": 1,
      "noteOffVelocity": 0,
      "ticks": 257760,
      "durationTicks": 480
    },
    {
      "Type": "tap",
      "Time": 161.10000000000008,
      "Name": "down",
      "Names": [],
      "midi": 85,
      "velocity": 1,
      "noteOffVelocity": 0,
      "ticks": 257760,
      "durationTicks": 480
    },
    {
      "Type": "tap",
      "Time": 161.4000000000001,
      "Name": "up",
      "Names": [],
      "midi": 76,
      "velocity": 1,
      "noteOffVelocity": 0,
      "ticks": 258240,
      "durationTicks": 1440
    },
    {
      "Type": "tap",
      "Time": 161.4000000000001,
      "Name": "down",
      "Names": [],
      "midi": 83,
      "velocity": 1,
      "noteOffVelocity": 0,
      "ticks": 258240,
      "durationTicks": 1440
    },
    {
      "Type": "tap",
      "Time": 162.30000000000007,
      "Name": "up",
      "Names": [],
      "midi": 82,
      "velocity": 0.9921259842519685,
      "noteOffVelocity": 0,
      "ticks": 259680,
      "durationTicks": 480
    },
    {
      "Type": "tap",
      "Time": 162.60000000000008,
      "Name": "up",
      "Names": [],
      "midi": 85,
      "velocity": 1,
      "noteOffVelocity": 0,
      "ticks": 260160,
      "durationTicks": 480
    },
    {
      "Type": "tap",
      "Time": 162.9000000000001,
      "Name": "left",
      "Names": [],
      "midi": 80,
      "velocity": 0.937007874015748,
      "noteOffVelocity": 0,
      "ticks": 260640,
      "durationTicks": 240
    },
    {
      "Type": "tap",
      "Time": 163.05000000000007,
      "Name": "up",
      "Names": [],
      "midi": 83,
      "velocity": 1,
      "noteOffVelocity": 0,
      "ticks": 260880,
      "durationTicks": 240
    },
    {
      "Type": "tap",
      "Time": 163.2000000000001,
      "Name": "up",
      "Names": [],
      "midi": 78,
      "velocity": 0.889763779527559,
      "noteOffVelocity": 0,
      "ticks": 261120,
      "durationTicks": 480
    },
    {
      "Type": "tap",
      "Time": 163.50000000000009,
      "Name": "left",
      "Names": [],
      "midi": 76,
      "velocity": 0.8740157480314961,
      "noteOffVelocity": 0,
      "ticks": 261600,
      "durationTicks": 480
    },
    {
      "Type": "tap",
      "Time": 163.80000000000007,
      "Name": "right",
      "Names": [],
      "midi": 88,
      "velocity": 1,
      "noteOffVelocity": 0,
      "ticks": 262080,
      "durationTicks": 240
    },
    {
      "Type": "tap",
      "Time": 163.9500000000001,
      "Name": "down",
      "Names": [],
      "midi": 76,
      "velocity": 0.8582677165354331,
      "noteOffVelocity": 0,
      "ticks": 262320,
      "durationTicks": 240
    },
    {
      "Type": "tap",
      "Time": 164.10000000000008,
      "Name": "up",
      "Names": [],
      "midi": 87,
      "velocity": 1,
      "noteOffVelocity": 0,
      "ticks": 262560,
      "durationTicks": 240
    },
    {
      "Type": "tap",
      "Time": 164.25000000000009,
      "Name": "up",
      "Names": [],
      "midi": 75,
      "velocity": 0.8503937007874016,
      "noteOffVelocity": 0,
      "ticks": 262800,
      "durationTicks": 240
    },
    {
      "Type": "tap",
      "Time": 164.4000000000001,
      "Name": "down",
      "Names": [],
      "midi": 88,
      "velocity": 1,
      "noteOffVelocity": 0,
      "ticks": 263040,
      "durationTicks": 960
    },
    {
      "Type": "tap",
      "Time": 165.00000000000009,
      "Name": "right",
      "Names": [],
      "midi": 83,
      "velocity": 1,
      "noteOffVelocity": 0,
      "ticks": 264000,
      "durationTicks": 480
    },
    {
      "Type": "tap",
      "Time": 165.00000000000009,
      "Name": "left",
      "Names": [],
      "midi": 92,
      "velocity": 1,
      "noteOffVelocity": 0,
      "ticks": 264000,
      "durationTicks": 480
    },
    {
      "Type": "tap",
      "Time": 165.30000000000007,
      "Name": "up",
      "Names": [],
      "midi": 85,
      "velocity": 1,
      "noteOffVelocity": 0,
      "ticks": 264480,
      "durationTicks": 480
    },
    {
      "Type": "tap",
      "Time": 165.30000000000007,
      "Name": "left",
      "Names": [],
      "midi": 90,
      "velocity": 1,
      "noteOffVelocity": 0,
      "ticks": 264480,
      "durationTicks": 960
    },
    {
      "Type": "tap",
      "Time": 165.60000000000008,
      "Name": "up",
      "Names": [],
      "midi": 82,
      "velocity": 0.889763779527559,
      "noteOffVelocity": 0,
      "ticks": 264960,
      "durationTicks": 480
    },
    {
      "Type": "tap",
      "Time": 165.9000000000001,
      "Name": "down",
      "Names": [],
      "midi": 78,
      "velocity": 0.8582677165354331,
      "noteOffVelocity": 0,
      "ticks": 265440,
      "durationTicks": 480
    },
    {
      "Type": "tap",
      "Time": 166.2000000000001,
      "Name": "left",
      "Names": [],
      "midi": 76,
      "velocity": 0.8976377952755905,
      "noteOffVelocity": 0,
      "ticks": 265920,
      "durationTicks": 1440
    },
    {
      "Type": "tap",
      "Time": 167.10000000000008,
      "Name": "left",
      "Names": [],
      "midi": 75,
      "velocity": 1,
      "noteOffVelocity": 0,
      "ticks": 267360,
      "durationTicks": 480
    },
    {
      "Type": "tap",
      "Time": 167.10000000000008,
      "Name": "down",
      "Names": [],
      "midi": 85,
      "velocity": 1,
      "noteOffVelocity": 0,
      "ticks": 267360,
      "durationTicks": 480
    },
    {
      "Type": "tap",
      "Time": 167.4000000000001,
      "Name": "up",
      "Names": [],
      "midi": 80,
      "velocity": 1,
      "noteOffVelocity": 0,
      "ticks": 267840,
      "durationTicks": 960
    },
    {
      "Type": "tap",
      "Time": 168.00000000000009,
      "Name": "down",
      "Names": [],
      "midi": 75,
      "velocity": 0.9212598425196851,
      "noteOffVelocity": 0,
      "ticks": 268800,
      "durationTicks": 480
    },
    {
      "Type": "tap",
      "Time": 168.30000000000007,
      "Name": "left",
      "Names": [],
      "midi": 76,
      "velocity": 0.9606299212598425,
      "noteOffVelocity": 0,
      "ticks": 269280,
      "durationTicks": 480
    },
    {
      "Type": "tap",
      "Time": 168.60000000000008,
      "Name": "left",
      "Names": [],
      "midi": 75,
      "velocity": 0.9921259842519685,
      "noteOffVelocity": 0,
      "ticks": 269760,
      "durationTicks": 1440
    },
    {
      "Type": "tap",
      "Time": 169.50000000000009,
      "Name": "right",
      "Names": [],
      "midi": 71,
      "velocity": 0.9606299212598425,
      "noteOffVelocity": 0,
      "ticks": 271200,
      "durationTicks": 480
    },
    {
      "Type": "tap",
      "Time": 169.80000000000007,
      "Name": "left",
      "Names": [],
      "midi": 73,
      "velocity": 1,
      "noteOffVelocity": 0,
      "ticks": 271680,
      "durationTicks": 3840
    }
  ]
}